<?xml version="1.0" encoding="UTF-8"?>
<svg version="1.1" viewBox="0 0 900 900" width="1280" height="1280" xmlns="http://www.w3.org/2000/svg">
<path transform="translate(329,199)" d="m0 0h65l2 1 1 3v63l-2 5-2 1h-65l-4-3-1-12v-49l2-7z" fill="#388D2E"/>
<path transform="translate(418,111)" d="m0 0h63l4 4v62l-2 6-5 1h-61l-4-2-2-10v-32l1-25 2-3z" fill="#388D2E"/>
<path transform="translate(328,287)" d="m0 0h67l2 4v60l-2 8-4 1h-61l-5-2-1-2-1-47 1-20z" fill="#388D2D"/>
<path transform="translate(415,287)" d="m0 0h67l2 1 1 3v62l-2 6-4 1h-62l-4-2-1-2v-66z" fill="#378D2D"/>
<path transform="translate(330,111)" d="m0 0h63l3 2 1 3v61l-2 6-3 1h-64l-4-4v-65l2-3z" fill="#388D2E"/>
<path transform="translate(417,199)" d="m0 0h65l2 1 1 3v54l-1 12-1 2-3 1h-64l-4-4v-65l2-3z" fill="#388E2E"/>
<path transform="translate(419,23)" d="m0 0h62l3 2 1 4v52l-1 12-1 2-4 1h-63l-4-4v-65l2-3z" fill="#388D2D"/>
<path transform="translate(503,199)" d="m0 0h67l2 1 1 8-1 62-5 2h-63l-4-4v-66z" fill="#378D2D"/>
<path transform="translate(505,23)" d="m0 0h60l7 2v69l-5 2h-63l-4-4v-65l1-3z" fill="#378D2D"/>
<path transform="translate(353,20)" d="m0 0h16l11 4 8 6 7 8 4 8 2 9v9l-3 12-6 9-5 5-9 6-9 3-9 1-14-3-10-6-7-7-6-11-2-9v-9l2-8 6-12 8-8 12-6z" fill="#C51214"/>
<path transform="translate(581,497)" d="m0 0 4 2 6 16 18 52v4h-10l-6-1-4-17h-28l-2 10-3 7-1 1h-28l-6-2-13-22-2-3-9-2v28l-2 1h-8l-5-1v-72h27l11 2 6 4 5 7 1 4v9l-4 8-6 5-3 2 10 16 7 10 1 3h3l5-14 12-34 7-21 1-1zm-83 12-1 1-1 7v12l1 2 12-1 6-3 1-2v-10l-2-3-6-2zm76 0-7 24-2 8h20l-4-16-6-16z" fill="#190D08"/>
<path transform="translate(218,411)" d="m0 0h20l12 21 16 27 3 5v-53h13l1 3-1 69h-18l-3-3-10-18-9-15-10-18-2-1 1 2 1 52-1 1h-12l-1-1z" fill="#160C07"/>
<path transform="translate(667,410)" d="m0 0h22l10 4 7 7 5 10 2 8v12l-2 12-4 8-8 8-9 4-16 1-11-2-8-5-6-7-4-9-2-14 1-12 5-12 7-8 7-4zm9 11-9 3-5 6-3 12v11l3 10 5 6 9 3 9-1 6-4 4-5 2-10v-13l-3-10-8-7z" fill="#170C07"/>
<path transform="translate(349,498)" d="m0 0h28l12 2 10 7 6 8 3 7 1 6v10l-2 11-6 10-8 7-8 3-6 1h-30l-1-1v-70zm15 12v48l1 1 14-1 6-3 6-7 2-8v-13l-3-9-5-5-7-3z" fill="#160B06"/>
<path transform="translate(433,700)" d="m0 0h129l186 1-1 4-208 1h-129l-260-1-1-4z" fill="#478F3D"/>
<path transform="translate(581,497)" d="m0 0 4 2 6 16 18 52v4h-10l-6-1-4-17h-28l-2 10-3 7-1 1-16-1 5-12 7-20 12-35 2-5zm-7 12-7 24-2 8h20l-4-16-6-16z" fill="#170B07"/>
<path transform="translate(511,410)" d="m0 0 14 1v45l2 10 5 4 9 1 7-2 4-3 1-4 1-51h15v52l-3 9-4 5-6 4-6 2-7 1h-9l-9-2-8-5-5-6-2-6v-54z" fill="#180C07"/>
<path transform="translate(424,498)" d="m0 0h42v11l-1 1h-26l1 16 24 1v12h-25l1 19h25l1 1v11l-1 1h-37l-4-1z" fill="#170C07"/>
<path transform="translate(292,498)" d="m0 0h41v11l-1 1h-26v17h25l1 3-1 9h-25v20l25-1 2 1v11l-4 1-37-1-1-1v-70z" fill="#150B06"/>
<path transform="translate(314,410)" d="m0 0h16l12 2v8l-3 6-9-3h-13l-4 4 1 7 10 6 11 6 5 4 4 7v12l-6 9-7 4-9 2h-10l-10-2-5-2-1-6 1-8 9 3 10 2 9-1 4-4-1-6-5-4-15-8-7-6-3-6v-11l4-8 6-5z" fill="#170C07"/>
<path transform="translate(581,410)" d="m0 0h53l2 1v11l-1 1h-19v60h-16v-61l-7 1h-12l-1-1v-11z" fill="#1C0C08"/>
<path transform="translate(235,498)" d="m0 0h42l-1 11-1 1h-26l1 5v14h24l1 1v11l-25 1-1 29-14-1z" fill="#160C07"/>
<path transform="translate(351,410)" d="m0 0h52l2 1v11l-4 1h-15l-1 60h-15v-61l-4 1h-15l-1-5v-7z" fill="#1A0F0A"/>
<path transform="translate(444,410)" d="m0 0h22l32 1v11l-20 1v60h-15v-60h-17l-3-1v-9z" fill="#1C0F0B"/>
<path transform="translate(620,498)" d="m0 0h15l1 6v54l29 1v11l-42 1-3-1z" fill="#160C07"/>
<path transform="translate(185,410)" d="m0 0 14 1v72h-15v-72z" fill="#140B06"/>
<path transform="translate(417,411)" d="m0 0h15v72h-15l-1-2z" fill="#140B06"/>
<path transform="translate(417,746)" d="m0 0 8 1 5 4h5v-2l7-3 10 1 5 5 2 7v28l-1 1h-5l-1-4v-25l-2-5-3-2h-7l-4 2-3 6-1 28h-5l-1-7v-23l-3-5-2-1h-8l-5 5-1 3-1 27-5 1-1-1v-40l4 1 1 3 7-4z" fill="#1F0E0A"/>
<path transform="translate(473,747)" d="m0 0 4 2v2l7-4h13l5 3 4 5 2 5v15l-4 8-5 4-8 2-9-2-5-3v23l-5-1v-58zm13 4-6 4-2 4-1 12 3 9 6 4h8l6-5 2-6v-12l-4-7-6-3z" fill="#1B0E09"/>
<path transform="translate(375,604)" d="m0 0h19l9 3 6 7v12l-4 6-6 4-4 1-14 1v21l-5 1-1-1-1-21v-33zm6 5-1 4v17l1 2h15l5-3 2-4v-9l-5-5-6-2z" fill="#1F0F0A"/>
<path transform="translate(504,618)" d="m0 0h12l5 3 3 7v31l-4 1-1-5-9 5h-12l-6-5-1-3v-8l5-6 5-2 17-1-2-9-4-3-11 1-4 1-1-4 3-2zm3 21-7 2-3 3v8l5 4 9-1 6-5 1-3v-7l-2-1z" fill="#1D0F0A"/>
<path transform="translate(330,732)" d="m0 0 13 1 4 2 1 4-4 1-5-1h-13l-6 3-4 5-2 6v16l4 8 5 4 6 2h8l9-1-1 5-8 2h-10l-9-3-7-6-4-9-1-5v-10l3-10 6-8 10-5z" fill="#23100B"/>
<path transform="translate(364,747)" d="m0 0h16l5 4 2 6v31h-4v-3l-5 1-3 2-13 1-4-2-4-8v-6l3-5 7-3 7-1h10l-2-10-4-2h-8l-7 1v-4zm4 21-7 3-1 2v8l4 3h9l6-4 2-5v-6l-1-1z" fill="#1F0E0A"/>
<path transform="translate(431,618)" d="m0 0h12l5 3 2 6v32h-4v-3l-10 4h-11l-4-2-3-5-1-8 4-6 7-3 15-1v-11l-4-1-16 1-1-2 3-3zm2 21-7 2-3 4 1 8 6 3 8-1 5-4 1-2v-9l-2-1z" fill="#200F0A"/>
<path transform="translate(519,747)" d="m0 0h5l1 5v21l2 8 3 2h10l5-5 1-5 1-25 5-1 1 1v36l-1 4-4-1-1-3-5 4-12 1-6-2-4-4-1-4z" fill="#200C08"/>
<path transform="translate(523,835)" d="m0 0h5l1 27 2 8 2 1h10l5-3 2-12 1-21h5v40l-3 1-4-3-4 3h-16l-5-5-2-9v-26z" fill="#1F0C08"/>
<path transform="translate(360,835)" d="m0 0h5l1 31 2 4 2 1h10l5-3 1-2 2-31h5v40l-4 1-3-3-4 3h-16l-5-5-2-9v-22z" fill="#1F0D09"/>
<path transform="translate(445,835)" d="m0 0h4l1 29 2 6 2 1h11l4-4 2-7 1-24 5-1 1 3-1 37-4 1-3-3-4 3h-16l-5-5-2-9v-18l1-8z" fill="#1E0E09"/>
<path transform="translate(317,821)" d="m0 0h38l1 1v5l-17 1v47l-1 1h-5l-1-1v-48h-17l-1-4z" fill="#1E130E"/>
<path transform="translate(571,747)" d="m0 0h17l4 2-1 4-7-1h-13l-1 6 5 5 13 5 4 3 1 3v7l-5 6-9 2-12-1-3-3v-3l6 1h14l3-4-1-6-9-3-9-5-4-5 1-8z" fill="#1F100B"/>
<path transform="translate(416,835)" d="m0 0h17l1 5-2 1-11-1-5 2-3 4-1 3v13l3 6 5 3h8l6-1-1 5-7 2h-8l-6-3-5-6-2-6v-13l3-7 4-5z" fill="#21100B"/>
<path transform="translate(492,835)" d="m0 0 4 1 1 5 5-2 1-3 2-1h10l-1 4-9 2-5 4-2 4-1 26-5 1-1-7v-30z" fill="#29100C"/>
<path transform="translate(484,617)" d="m0 0h3v5l-11 3-4 4-2 8-1 22-4 1-1-1-1-13 1-28 4 1 1 5 7-5z" fill="#21120D"/>
<path transform="translate(571,835)" d="m0 0h5v41l-5-1-1-4v-15z" fill="#22100C"/>
<path transform="translate(747,701)" d="m0 0 1 3-1 1h-47v-2l10-1z" fill="#FEFEFE"/>
<path transform="translate(581,816)" d="m0 0 3 1-2 4-7 8h-4l2-5 6-7z" fill="#1F0E0A"/>
<path transform="translate(513,600)" d="m0 0h4l-1 4-6 7-5 1 1-4 5-7z" fill="#1F0E0A"/>
</svg>
