<svg width="393" height="252" viewBox="0 0 393 252" fill="none" xmlns="http://www.w3.org/2000/svg">
<g clip-path="url(#clip0_111_24)">
<path d="M367.216 222.659H267.945C264.333 222.655 260.871 221.218 258.317 218.664C255.763 216.111 254.326 212.648 254.322 209.036V52.4477C254.326 48.836 255.763 45.3735 258.317 42.8196C260.871 40.2658 264.333 38.8293 267.945 38.8252H317.58H367.216C370.827 38.8293 374.29 40.2658 376.844 42.8196C379.398 45.3735 380.834 48.836 380.838 52.4477V209.036C380.834 212.648 379.398 216.111 376.844 218.664C374.29 221.218 370.827 222.655 367.216 222.659Z" fill="black"/>
<path d="M368.863 46.9541H267.759C266.628 46.9555 265.544 47.4052 264.745 48.2047C263.945 49.0041 263.496 50.088 263.494 51.2185V209.849C263.496 210.979 263.946 212.063 264.745 212.862C265.544 213.662 266.628 214.112 267.759 214.113H368.863C369.993 214.112 371.077 213.662 371.877 212.863C372.676 212.063 373.126 210.98 373.127 209.849V51.2185C373.126 50.088 372.676 49.0041 371.877 48.2047C371.077 47.4052 369.993 46.9555 368.863 46.9541Z" fill="white"/>
<path d="M270.371 38.8253C270.371 38.549 270.481 38.2842 270.677 38.0888C270.872 37.8934 271.137 37.7835 271.413 37.7832H278.5C278.776 37.7832 279.041 37.893 279.237 38.0884C279.432 38.2839 279.542 38.5489 279.542 38.8253C279.542 39.1017 279.432 39.3668 279.237 39.5623C279.041 39.7577 278.776 39.8675 278.5 39.8675H271.413C271.137 39.8671 270.872 39.7572 270.677 39.5619C270.481 39.3665 270.371 39.1016 270.371 38.8253Z" fill="#E6E6E6"/>
<path d="M282.043 38.8253C282.043 38.549 282.153 38.2842 282.349 38.0888C282.544 37.8934 282.809 37.7835 283.085 37.7832H290.172C290.448 37.7832 290.713 37.893 290.909 38.0884C291.104 38.2839 291.214 38.5489 291.214 38.8253C291.214 39.1017 291.104 39.3668 290.909 39.5623C290.713 39.7577 290.448 39.8675 290.172 39.8675H283.085C282.809 39.8672 282.544 39.7573 282.349 39.5619C282.153 39.3665 282.043 39.1016 282.043 38.8253Z" fill="#E6E6E6"/>
<path d="M352.076 38.8253C352.076 38.549 352.186 38.2842 352.382 38.0888C352.577 37.8934 352.842 37.7835 353.118 37.7832H360.205C360.481 37.7832 360.746 37.893 360.942 38.0884C361.137 38.2839 361.247 38.5489 361.247 38.8253C361.247 39.1017 361.137 39.3668 360.942 39.5623C360.746 39.7577 360.481 39.8675 360.205 39.8675H353.118C352.842 39.8672 352.577 39.7573 352.382 39.5619C352.186 39.3665 352.076 39.1016 352.076 38.8253Z" fill="#E6E6E6"/>
<path d="M332.321 210.845C332.321 211.941 332.3 213.033 332.25 214.113H267.759C266.628 214.111 265.544 213.661 264.745 212.862C263.946 212.063 263.496 210.979 263.494 209.849V130.004C282.699 133.107 300.173 142.946 312.784 157.759C325.396 172.572 332.322 191.39 332.321 210.845Z" fill="#52515B"/>
<path d="M330.131 87.7188H306.079C304.985 87.7188 304.098 88.606 304.098 89.7005V92.1735C304.098 93.268 304.985 94.1553 306.079 94.1553H330.131C331.226 94.1553 332.113 93.268 332.113 92.1735V89.7005C332.113 88.606 331.226 87.7188 330.131 87.7188Z" fill="#6C63FF"/>
<path d="M345.418 100.592H290.792C289.698 100.592 288.811 101.479 288.811 102.574V105.047C288.811 106.141 289.698 107.028 290.792 107.028H345.418C346.512 107.028 347.399 106.141 347.399 105.047V102.574C347.399 101.479 346.512 100.592 345.418 100.592Z" fill="#A0616A"/>
<path d="M345.418 113.465H290.792C289.698 113.465 288.811 114.352 288.811 115.447V117.92C288.811 119.014 289.698 119.901 290.792 119.901H345.418C346.512 119.901 347.399 119.014 347.399 117.92V115.447C347.399 114.352 346.512 113.465 345.418 113.465Z" fill="#A0616A"/>
<path d="M336.063 203.272C335.75 203.286 335.439 203.204 335.175 203.036C334.91 202.869 334.703 202.624 334.582 202.334C334.461 202.045 334.432 201.726 334.498 201.419C334.565 201.113 334.724 200.834 334.955 200.622L335.059 200.205C335.046 200.172 335.032 200.138 335.018 200.105C334.702 199.36 334.173 198.724 333.498 198.279C332.822 197.833 332.03 197.597 331.221 197.6C330.412 197.603 329.621 197.845 328.949 198.295C328.277 198.746 327.753 199.386 327.443 200.133C326.204 203.117 324.627 206.106 324.239 209.261C324.068 210.655 324.14 212.069 324.452 213.438C321.542 207.091 320.031 200.193 320.021 193.21C320.021 191.458 320.118 189.707 320.313 187.966C320.474 186.538 320.698 185.121 320.983 183.714C322.543 176.079 325.891 168.923 330.754 162.833C333.107 161.549 335.01 159.574 336.207 157.175C336.64 156.313 336.947 155.392 337.116 154.442C336.851 154.477 336.581 154.499 336.316 154.516C336.233 154.52 336.146 154.525 336.063 154.529L336.032 154.531C335.74 154.544 335.451 154.472 335.199 154.325C334.947 154.177 334.743 153.96 334.611 153.699C334.48 153.438 334.426 153.145 334.458 152.855C334.489 152.564 334.604 152.289 334.788 152.062C334.902 151.921 335.017 151.78 335.132 151.639C335.306 151.422 335.484 151.209 335.658 150.991C335.679 150.97 335.697 150.948 335.715 150.926C335.915 150.678 336.115 150.434 336.316 150.186C335.95 149.619 335.459 149.143 334.879 148.797C332.873 147.622 330.105 148.436 328.656 150.251C327.202 152.066 326.928 154.612 327.433 156.879C327.929 158.809 328.751 160.639 329.861 162.293C329.753 162.432 329.639 162.567 329.531 162.707C327.542 165.264 325.808 168.01 324.355 170.906C324.709 167.662 324.287 164.381 323.124 161.331C321.947 158.49 319.739 156.096 317.794 153.64C315.459 150.689 310.67 151.977 310.258 155.717C310.254 155.754 310.251 155.79 310.247 155.826C310.536 155.989 310.818 156.162 311.095 156.345C311.442 156.577 311.712 156.909 311.867 157.296C312.023 157.684 312.058 158.11 311.968 158.518C311.877 158.926 311.666 159.297 311.361 159.583C311.056 159.869 310.672 160.056 310.259 160.119L310.216 160.126C310.319 161.167 310.501 162.198 310.76 163.211C311.512 166.04 312.839 168.683 314.66 170.975C316.48 173.266 318.755 175.157 321.34 176.529C321.51 176.616 321.675 176.703 321.845 176.785C320.385 180.923 319.469 185.233 319.121 189.607C318.923 192.187 318.935 194.779 319.155 197.358L319.142 197.266C318.585 194.399 317.056 191.812 314.812 189.942C311.48 187.204 306.772 186.196 303.177 183.996C302.794 183.751 302.35 183.62 301.896 183.619C301.442 183.617 300.997 183.746 300.614 183.99C300.231 184.233 299.925 184.581 299.733 184.992C299.541 185.404 299.471 185.862 299.53 186.312C299.535 186.344 299.54 186.376 299.545 186.408C300.081 186.626 300.603 186.878 301.107 187.161C301.396 187.324 301.679 187.497 301.956 187.68C302.303 187.912 302.572 188.243 302.728 188.631C302.884 189.019 302.919 189.445 302.828 189.853C302.738 190.261 302.526 190.632 302.221 190.918C301.916 191.203 301.532 191.39 301.119 191.454L301.077 191.461C301.047 191.465 301.02 191.469 300.99 191.474C301.906 193.66 303.191 195.673 304.789 197.423C306.764 199.542 309.15 201.235 311.803 202.399C314.455 203.562 317.317 204.172 320.213 204.19H320.217C321.004 207.607 322.143 210.932 323.616 214.113H335.758C335.802 213.978 335.841 213.839 335.88 213.704C334.756 213.775 333.628 213.707 332.521 213.504C333.421 212.398 334.322 211.284 335.223 210.179C335.243 210.158 335.262 210.136 335.28 210.113C335.737 209.548 336.198 208.986 336.655 208.421C336.679 206.686 336.48 204.955 336.063 203.272ZM322.158 175.919L322.165 175.911L322.158 175.928V175.919ZM319.469 200.165L319.364 199.93C319.369 199.76 319.369 199.59 319.364 199.416C319.364 199.368 319.356 199.32 319.356 199.273C319.395 199.573 319.43 199.873 319.473 200.173L319.469 200.165Z" fill="#6CB850" fill-opacity="0.94"/>
<path d="M363.808 60.9588H272.811C272.614 60.9545 272.427 60.8732 272.289 60.7325C272.151 60.5917 272.074 60.4026 272.074 60.2057C272.074 60.0088 272.151 59.8197 272.289 59.679C272.427 59.5382 272.614 59.457 272.811 59.4526H363.808C364.005 59.457 364.192 59.5382 364.33 59.679C364.467 59.8197 364.544 60.0088 364.544 60.2057C364.544 60.4026 364.467 60.5917 364.33 60.7325C364.192 60.8732 364.005 60.9545 363.808 60.9588Z" fill="#CACACA"/>
<path d="M277.667 57.275C278.889 57.275 279.88 56.262 279.88 55.0123C279.88 53.7626 278.889 52.7495 277.667 52.7495C276.444 52.7495 275.453 53.7626 275.453 55.0123C275.453 56.262 276.444 57.275 277.667 57.275Z" fill="#3F3D56"/>
<path d="M285.313 57.275C286.535 57.275 287.526 56.262 287.526 55.0123C287.526 53.7626 286.535 52.7495 285.313 52.7495C284.091 52.7495 283.1 53.7626 283.1 55.0123C283.1 56.262 284.091 57.275 285.313 57.275Z" fill="#3F3D56"/>
<path d="M292.96 57.275C294.182 57.275 295.173 56.262 295.173 55.0123C295.173 53.7626 294.182 52.7495 292.96 52.7495C291.737 52.7495 290.746 53.7626 290.746 55.0123C290.746 56.262 291.737 57.275 292.96 57.275Z" fill="#3F3D56"/>
<path d="M360.251 53.6235H355.297C355.199 53.6255 355.106 53.6659 355.037 53.736C354.968 53.8061 354.93 53.9004 354.93 53.9986C354.93 54.0968 354.968 54.1911 355.037 54.2612C355.106 54.3313 355.199 54.3717 355.297 54.3736H360.251C360.349 54.3717 360.442 54.3313 360.511 54.2612C360.58 54.1911 360.619 54.0968 360.619 53.9986C360.619 53.9004 360.58 53.8061 360.511 53.736C360.442 53.6659 360.349 53.6255 360.251 53.6235Z" fill="#3F3D56"/>
<path d="M360.251 55.0312H355.297C355.199 55.0332 355.106 55.0736 355.037 55.1437C354.968 55.2138 354.93 55.3081 354.93 55.4063C354.93 55.5045 354.968 55.5988 355.037 55.6689C355.106 55.7391 355.199 55.7794 355.297 55.7814H360.251C360.349 55.7794 360.442 55.7391 360.511 55.6689C360.58 55.5988 360.619 55.5045 360.619 55.4063C360.619 55.3081 360.58 55.2138 360.511 55.1437C360.442 55.0736 360.349 55.0332 360.251 55.0312Z" fill="#3F3D56"/>
<path d="M360.251 56.4375H355.297C355.199 56.4394 355.106 56.4798 355.037 56.5499C354.968 56.6201 354.93 56.7143 354.93 56.8126C354.93 56.9108 354.968 57.0051 355.037 57.0752C355.106 57.1453 355.199 57.1857 355.297 57.1876H360.251C360.349 57.1857 360.442 57.1453 360.511 57.0752C360.58 57.0051 360.619 56.9108 360.619 56.8126C360.619 56.7143 360.58 56.6201 360.511 56.5499C360.442 56.4798 360.349 56.4394 360.251 56.4375Z" fill="#3F3D56"/>
<path d="M212.609 130.064H159.852C159.105 130.065 158.39 130.363 157.863 130.891C157.336 131.419 157.04 132.136 157.041 132.882V216.223H215.427V132.882C215.427 132.512 215.355 132.145 215.213 131.803C215.071 131.461 214.864 131.151 214.602 130.889C214.34 130.627 214.03 130.42 213.688 130.278C213.346 130.137 212.979 130.064 212.609 130.064ZM186.408 177.418C184.758 177.41 183.178 176.751 182.011 175.584C180.845 174.418 180.186 172.838 180.178 171.188V161.575C180.18 159.924 180.837 158.341 182.005 157.173C183.173 156.006 184.757 155.351 186.408 155.351C188.059 155.351 189.643 156.006 190.811 157.173C191.979 158.341 192.636 159.924 192.638 161.575V171.188C192.63 172.838 191.971 174.418 190.805 175.584C189.638 176.751 188.058 177.41 186.408 177.418Z" fill="#E6E6E6"/>
<path d="M156.859 213.557V221.598C156.86 222.015 157.026 222.414 157.321 222.709C157.615 223.003 158.015 223.169 158.431 223.17H214.036C214.452 223.168 214.851 223.001 215.145 222.707C215.439 222.413 215.606 222.014 215.608 221.598V213.557L156.859 213.557Z" fill="black"/>
<path d="M299.972 0H74.4537C72.5161 0.00308243 70.6588 0.774136 69.2887 2.14419C67.9187 3.51424 67.1476 5.37155 67.1445 7.30911V159.49C67.1464 161.428 67.9171 163.286 69.2874 164.656C70.6577 166.026 72.5157 166.797 74.4537 166.799H299.972C301.91 166.797 303.768 166.026 305.138 164.656C306.508 163.286 307.279 161.428 307.281 159.49V7.30911C307.278 5.37155 306.507 3.51424 305.137 2.14419C303.767 0.774136 301.909 0.00308123 299.972 0Z" fill="black"/>
<path d="M298.09 5.2793H76.3386C75.3012 5.28155 74.307 5.69522 73.5742 6.42956C72.8414 7.16389 72.4298 8.15892 72.4297 9.19634V157.605C72.4315 158.641 72.8439 159.634 73.5765 160.367C74.3092 161.1 75.3024 161.512 76.3386 161.514H298.09C299.126 161.512 300.119 161.1 300.852 160.367C301.585 159.634 301.997 158.641 301.999 157.605V9.19634C301.999 8.15892 301.587 7.16389 300.854 6.42956C300.122 5.69522 299.127 5.28155 298.09 5.2793Z" fill="white"/>
<path d="M301.997 9.19634V157.605C301.996 158.641 301.583 159.634 300.85 160.367C300.118 161.1 299.125 161.512 298.088 161.514H219.894C211.244 153.492 204.147 143.943 198.96 133.347C198.618 132.664 198.293 131.973 197.985 131.275C193.258 121.019 190.396 110.003 189.533 98.7437C189.476 98.0529 189.427 97.3621 189.395 96.6632C189.289 94.8754 189.24 93.0631 189.24 91.2428C189.225 79.136 191.511 67.1367 195.977 55.8838C196.245 55.1849 196.53 54.4941 196.822 53.8034C205.811 32.6846 222.053 15.4745 242.616 5.2793H298.088C299.126 5.28155 300.12 5.69522 300.853 6.42956C301.586 7.16389 301.997 8.15892 301.997 9.19634Z" fill="#6C63FF"/>
<path d="M286.942 25.7264H79.4503C79.2345 25.7218 79.0291 25.6329 78.8781 25.4786C78.7271 25.3244 78.6426 25.1172 78.6426 24.9013C78.6426 24.6855 78.7271 24.4782 78.8781 24.324C79.0291 24.1697 79.2345 24.0808 79.4503 24.0762H286.942C287.158 24.0808 287.363 24.1697 287.514 24.324C287.665 24.4782 287.75 24.6855 287.75 24.9013C287.75 25.1172 287.665 25.3244 287.514 25.4786C287.363 25.6329 287.158 25.7218 286.942 25.7264Z" fill="#CACACA"/>
<path d="M93.574 19.8635C96.2447 19.8635 98.4097 17.6502 98.4097 14.92C98.4097 12.1898 96.2447 9.97656 93.574 9.97656C90.9033 9.97656 88.7383 12.1898 88.7383 14.92C88.7383 17.6502 90.9033 19.8635 93.574 19.8635Z" fill="#3F3D56"/>
<path d="M110.279 19.8635C112.95 19.8635 115.115 17.6502 115.115 14.92C115.115 12.1898 112.95 9.97656 110.279 9.97656C107.608 9.97656 105.443 12.1898 105.443 14.92C105.443 17.6502 107.608 19.8635 110.279 19.8635Z" fill="#3F3D56"/>
<path d="M126.984 19.8635C129.655 19.8635 131.82 17.6502 131.82 14.92C131.82 12.1898 129.655 9.97656 126.984 9.97656C124.313 9.97656 122.148 12.1898 122.148 14.92C122.148 17.6502 124.313 19.8635 126.984 19.8635Z" fill="#3F3D56"/>
<path d="M276.884 11.2017H265.018C264.782 11.2063 264.558 11.303 264.394 11.471C264.229 11.639 264.137 11.8649 264.137 12.1002C264.137 12.3354 264.229 12.5613 264.394 12.7293C264.558 12.8973 264.782 12.994 265.018 12.9987H276.884C277.119 12.994 277.343 12.8973 277.508 12.7293C277.673 12.5613 277.765 12.3354 277.765 12.1002C277.765 11.8649 277.673 11.639 277.508 11.471C277.343 11.303 277.119 11.2063 276.884 11.2017Z" fill="#3F3D56"/>
<path d="M276.884 14.5747H265.018C264.782 14.5794 264.558 14.6761 264.394 14.8441C264.229 15.0121 264.137 15.2379 264.137 15.4732C264.137 15.7085 264.229 15.9344 264.394 16.1024C264.558 16.2704 264.782 16.3671 265.018 16.3717H276.884C277.119 16.3671 277.343 16.2704 277.508 16.1024C277.673 15.9344 277.765 15.7085 277.765 15.4732C277.765 15.2379 277.673 15.0121 277.508 14.8441C277.343 14.6761 277.119 14.5794 276.884 14.5747Z" fill="#3F3D56"/>
<path d="M276.884 17.9429H265.018C264.782 17.9475 264.558 18.0442 264.394 18.2122C264.229 18.3802 264.137 18.6061 264.137 18.8414C264.137 19.0766 264.229 19.3025 264.394 19.4705C264.558 19.6385 264.782 19.7352 265.018 19.7399H276.884C277.119 19.7352 277.343 19.6385 277.508 19.4705C277.673 19.3025 277.765 19.0766 277.765 18.8414C277.765 18.6061 277.673 18.3802 277.508 18.2122C277.343 18.0442 277.119 17.9475 276.884 17.9429Z" fill="#3F3D56"/>
<path d="M142.982 73.9321H113.966C112.872 73.9321 111.984 74.8194 111.984 75.9139V79.0026C111.984 80.0971 112.872 80.9844 113.966 80.9844H142.982C144.077 80.9844 144.964 80.0971 144.964 79.0026V75.9139C144.964 74.8194 144.077 73.9321 142.982 73.9321Z" fill="#6C63FF"/>
<path d="M159.73 88.0366H97.2161C96.1216 88.0366 95.2344 88.9239 95.2344 90.0184V93.1071C95.2344 94.2016 96.1216 95.0889 97.2161 95.0889H159.73C160.825 95.0889 161.712 94.2016 161.712 93.1071V90.0184C161.712 88.9239 160.825 88.0366 159.73 88.0366Z" fill="#A0616A"/>
<path d="M159.73 102.141H97.2161C96.1216 102.141 95.2344 103.028 95.2344 104.123V107.212C95.2344 108.306 96.1216 109.193 97.2161 109.193H159.73C160.825 109.193 161.712 108.306 161.712 107.212V104.123C161.712 103.028 160.825 102.141 159.73 102.141Z" fill="#A0616A"/>
<path d="M100.662 153.005C100.666 155.91 100.149 158.792 99.1338 161.514H76.3386C75.3024 161.512 74.3092 161.1 73.5765 160.367C72.8439 159.634 72.4315 158.641 72.4297 157.605V128.934C73.7033 128.728 74.9915 128.625 76.2817 128.625C79.4834 128.625 82.6537 129.256 85.6117 130.481C88.5697 131.706 91.2574 133.502 93.5213 135.766C95.7853 138.03 97.5811 140.717 98.8062 143.675C100.031 146.633 100.662 149.804 100.662 153.005Z" fill="#6C63FF"/>
<path opacity="0.2" d="M302.202 55.8835V53.8031H267.331V29.6914H265.259V53.8031H225.292V29.6914H223.22V53.8031H196.824C196.532 54.4938 196.247 55.1846 195.979 55.8835H223.22V96.663H189.396C189.429 97.3619 189.478 98.0527 189.535 98.7434H223.22V131.274H197.986C198.295 131.973 198.62 132.664 198.962 133.347H223.22V160.693H225.292V133.347H265.259V160.693H267.331V133.347H302.202V131.274H267.331C267.331 127.002 268.172 122.772 269.807 118.825C271.442 114.878 273.838 111.292 276.859 108.271C279.88 105.251 283.466 102.854 287.413 101.22C291.36 99.5848 295.59 98.7434 299.862 98.7434H302.202V96.6629H267.331V55.8835H302.202ZM265.259 131.274H225.292V98.7434H265.259V131.274ZM265.259 96.663H225.292V95.8503C225.292 85.2504 229.503 75.0847 236.998 67.5895C244.493 60.0943 254.659 55.8835 265.259 55.8835L265.259 96.663Z" fill="black"/>
<path d="M274.125 146.117C273.68 146.137 273.239 146.021 272.863 145.782C272.487 145.544 272.193 145.196 272.021 144.785C271.85 144.375 271.808 143.921 271.903 143.486C271.998 143.051 272.224 142.655 272.551 142.353C272.605 142.135 272.645 141.979 272.7 141.761C272.68 141.714 272.66 141.667 272.64 141.619C270.641 136.852 263.865 136.885 261.883 141.659C260.123 145.897 257.883 150.142 257.332 154.622C257.089 156.603 257.191 158.61 257.635 160.556C253.502 151.541 251.356 141.744 251.342 131.827C251.342 129.339 251.48 126.852 251.757 124.379C251.985 122.352 252.303 120.339 252.709 118.341C254.923 107.497 259.679 97.3335 266.584 88.6848C269.927 86.8612 272.63 84.0568 274.329 80.6497C274.945 79.4249 275.38 78.1175 275.621 76.7681C275.244 76.8175 274.861 76.8485 274.484 76.8731C274.366 76.8793 274.243 76.8855 274.125 76.8917L274.081 76.8937C273.666 76.9123 273.256 76.8107 272.898 76.6012C272.54 76.3917 272.25 76.0832 272.063 75.7128C271.876 75.3424 271.801 74.9259 271.845 74.5135C271.89 74.1011 272.052 73.7104 272.314 73.3883C272.476 73.188 272.639 72.9877 272.802 72.7876C273.05 72.4785 273.303 72.1757 273.55 71.8667C273.579 71.8373 273.606 71.8063 273.631 71.7739C273.915 71.4216 274.199 71.0755 274.484 70.7232C273.965 69.9177 273.267 69.2429 272.444 68.7515C269.595 67.0827 265.663 68.2385 263.605 70.8159C261.541 73.3933 261.151 77.0092 261.868 80.2293C262.48 82.986 263.815 85.514 265.317 87.9183C265.163 88.1161 265.002 88.3077 264.848 88.5055C262.023 92.1377 259.561 96.0379 257.497 100.15C257.999 95.5433 257.4 90.8828 255.749 86.5524C254.076 82.5166 250.941 79.1176 248.179 75.6287C244.863 71.438 238.061 73.2669 237.477 78.5793C237.471 78.6308 237.466 78.6822 237.46 78.7336C237.87 78.965 238.272 79.2106 238.665 79.4704C239.158 79.8001 239.541 80.2712 239.762 80.8219C239.983 81.3727 240.033 81.9774 239.904 82.5569C239.776 83.1363 239.475 83.6635 239.042 84.0693C238.609 84.4751 238.064 84.7406 237.477 84.831L237.417 84.8403C237.563 86.3185 237.821 87.7834 238.19 89.2225C239.257 93.2399 241.142 96.9936 243.728 100.248C246.313 103.503 249.543 106.188 253.215 108.136C253.456 108.26 253.691 108.383 253.932 108.501C251.859 114.377 250.558 120.498 250.063 126.709C249.783 130.374 249.799 134.055 250.112 137.718L250.094 137.588C249.303 133.516 247.13 129.841 243.944 127.185C239.211 123.298 232.525 121.866 227.419 118.741C224.961 117.237 221.812 119.181 222.241 122.03C222.248 122.076 222.255 122.121 222.262 122.166C223.023 122.476 223.764 122.834 224.48 123.236C224.891 123.467 225.292 123.713 225.685 123.973C226.178 124.302 226.561 124.773 226.782 125.324C227.003 125.875 227.053 126.48 226.924 127.059C226.796 127.638 226.496 128.166 226.063 128.571C225.629 128.977 225.084 129.243 224.497 129.333L224.437 129.342C224.394 129.349 224.357 129.355 224.314 129.361C225.614 132.466 227.439 135.324 229.709 137.81C232.514 140.819 235.903 143.224 239.67 144.877C243.437 146.529 247.501 147.395 251.614 147.421H251.621C252.737 152.273 254.355 156.996 256.448 161.514H273.692C273.754 161.322 273.81 161.124 273.866 160.933C272.269 161.033 270.667 160.938 269.094 160.648C270.373 159.079 271.653 157.496 272.932 155.926C272.961 155.897 272.988 155.866 273.013 155.834C273.661 155.03 274.317 154.233 274.966 153.429L274.966 153.428C275.001 150.965 274.717 148.508 274.125 146.117ZM254.377 107.271L254.386 107.258L254.377 107.283V107.271ZM250.558 141.704L250.409 141.37C250.415 141.129 250.415 140.888 250.409 140.641C250.409 140.573 250.397 140.505 250.397 140.437C250.452 140.864 250.502 141.29 250.564 141.717L250.558 141.704Z" fill="#6CB850" fill-opacity="0.94"/>
<path d="M120.568 105.785V82.6091C120.568 79.0516 119.155 75.6397 116.64 73.1241C114.124 70.6085 110.712 69.1953 107.155 69.1953H58.0525C54.4949 69.1953 51.0831 70.6085 48.5675 73.1241C46.0519 75.6397 44.6387 79.0516 44.6387 82.6091V209.756C44.6387 213.314 46.0519 216.726 48.5675 219.241C51.0831 221.757 54.4949 223.17 58.0525 223.17H107.155C108.916 223.17 110.66 222.823 112.288 222.149C113.915 221.475 115.394 220.487 116.64 219.241C117.885 217.996 118.873 216.517 119.547 214.889C120.221 213.262 120.568 211.518 120.568 209.756V122.283C120.793 122.283 121.008 122.194 121.167 122.035C121.325 121.876 121.414 121.661 121.414 121.437V106.631C121.414 106.407 121.325 106.192 121.167 106.033C121.008 105.875 120.793 105.785 120.568 105.785Z" fill="black"/>
<path d="M117.713 82.7013V209.665C117.714 212.302 116.673 214.833 114.819 216.707C112.964 218.582 110.444 219.649 107.807 219.676C107.77 219.68 107.734 219.682 107.697 219.681H58.3561C55.6997 219.681 53.1521 218.625 51.2738 216.747C49.3954 214.869 48.3401 212.321 48.3398 209.665V82.7013C48.3401 80.0449 49.3954 77.4974 51.2738 75.619C53.1521 73.7407 55.6997 72.6853 58.3561 72.6851H64.3439C64.0495 73.4079 63.9373 74.1921 64.0172 74.9685C64.097 75.7449 64.3665 76.4898 64.8018 77.1376C65.2372 77.7854 65.8251 78.3163 66.5138 78.6836C67.2025 79.0508 67.9709 79.2432 68.7514 79.2438H96.8817C97.6615 79.2416 98.4289 79.0482 99.1166 78.6804C99.8042 78.3125 100.391 77.7816 100.826 77.1342C101.26 76.4867 101.529 75.7425 101.609 74.9668C101.69 74.1911 101.578 73.4076 101.285 72.6851H107.697C110.354 72.6853 112.901 73.7406 114.78 75.619C116.658 77.4973 117.713 80.0449 117.713 82.7013Z" fill="white"/>
<path d="M107.93 215.762C107.93 217.077 107.889 218.382 107.807 219.676C107.77 219.68 107.734 219.681 107.697 219.681H58.3561C55.6997 219.68 53.1521 218.625 51.2738 216.747C49.3954 214.868 48.3401 212.321 48.3398 209.664V153.084C64.416 153.895 79.566 160.852 90.657 172.518C101.748 184.183 107.932 199.665 107.93 215.762Z" fill="#52515B"/>
<path d="M44.9094 118.751C44.6067 118.751 44.3165 118.631 44.1024 118.416C43.8883 118.202 43.7679 117.912 43.7676 117.609V109.845C43.7676 109.542 43.8879 109.252 44.102 109.038C44.3162 108.823 44.6066 108.703 44.9094 108.703C45.2123 108.703 45.5027 108.823 45.7168 109.038C45.931 109.252 46.0513 109.542 46.0513 109.845V117.609C46.0509 117.912 45.9305 118.202 45.7164 118.416C45.5024 118.631 45.2121 118.751 44.9094 118.751Z" fill="#575A89"/>
<path d="M89.0848 112.551H76.9681C75.8736 112.551 74.9863 113.439 74.9863 114.533V117.622C74.9863 118.716 75.8736 119.604 76.9681 119.604H89.0848C90.1793 119.604 91.0665 118.716 91.0665 117.622V114.533C91.0665 113.439 90.1793 112.551 89.0848 112.551Z" fill="#6C63FF"/>
<path d="M105.833 126.656H60.2181C59.1236 126.656 58.2363 127.543 58.2363 128.638V131.726C58.2363 132.821 59.1236 133.708 60.2181 133.708H105.833C106.928 133.708 107.815 132.821 107.815 131.726V128.638C107.815 127.543 106.928 126.656 105.833 126.656Z" fill="#A0616A"/>
<path d="M105.833 140.761H60.2181C59.1236 140.761 58.2363 141.648 58.2363 142.743V145.831C58.2363 146.926 59.1236 147.813 60.2181 147.813H105.833C106.928 147.813 107.815 146.926 107.815 145.831V142.743C107.815 141.648 106.928 140.761 105.833 140.761Z" fill="#9E616A"/>
<path d="M94.8572 212.456C94.6485 212.465 94.4418 212.411 94.2653 212.299C94.0887 212.187 93.9508 212.024 93.8702 211.831C93.7896 211.638 93.7702 211.425 93.8146 211.221C93.8591 211.017 93.9652 210.831 94.1186 210.69L94.1884 210.412C94.1793 210.39 94.17 210.367 94.1607 210.345C93.9504 209.849 93.5981 209.425 93.1479 209.128C92.6977 208.831 92.1698 208.674 91.6304 208.676C91.091 208.678 90.5643 208.839 90.1163 209.139C89.6683 209.44 89.3191 209.866 89.1126 210.364C88.2869 212.353 87.2357 214.345 86.9769 216.447C86.8629 217.376 86.911 218.319 87.119 219.232C85.1798 215.001 84.1728 210.404 84.1663 205.75C84.1659 204.582 84.2308 203.416 84.3607 202.255C84.468 201.304 84.6169 200.359 84.8073 199.421C85.8467 194.333 88.0783 189.563 91.3189 185.505C92.8873 184.649 94.1557 183.333 94.9532 181.734C95.2421 181.16 95.4462 180.546 95.5594 179.913C95.3824 179.936 95.2026 179.95 95.0257 179.962C94.9706 179.965 94.9126 179.968 94.8575 179.971L94.8367 179.972C94.6422 179.98 94.4494 179.933 94.2814 179.834C94.1134 179.736 93.9774 179.591 93.8898 179.418C93.8022 179.244 93.7667 179.048 93.7875 178.855C93.8084 178.661 93.8848 178.478 94.0074 178.327C94.0838 178.233 94.1603 178.139 94.2367 178.045C94.3528 177.9 94.4717 177.758 94.5877 177.613C94.6011 177.599 94.6137 177.584 94.6254 177.569C94.7589 177.404 94.8923 177.241 95.0257 177.076C94.7821 176.698 94.4546 176.381 94.0685 176.151C92.7314 175.368 90.8867 175.91 89.9208 177.12C88.9521 178.329 88.7694 180.026 89.1058 181.537C89.4367 182.823 89.984 184.043 90.7243 185.145C90.6518 185.238 90.5763 185.328 90.5038 185.421C89.1783 187.125 88.023 188.955 87.0545 190.885C87.2901 188.723 87.009 186.536 86.2343 184.504C85.4493 182.61 83.9778 181.015 82.682 179.378C82.3393 178.938 81.8739 178.61 81.3446 178.435C80.8153 178.259 80.2459 178.245 79.7084 178.393C79.1708 178.541 78.6893 178.845 78.3247 179.267C77.96 179.689 77.7286 180.209 77.6596 180.763C77.657 180.787 77.6544 180.811 77.6519 180.835C77.8443 180.944 78.0328 181.059 78.2171 181.181C78.4487 181.336 78.6281 181.557 78.7319 181.815C78.8357 182.074 78.859 182.357 78.7987 182.629C78.7385 182.901 78.5975 183.149 78.3943 183.339C78.1911 183.529 77.935 183.654 77.6598 183.696L77.6316 183.701C77.7001 184.394 77.8214 185.082 77.9941 185.757C78.4948 187.642 79.3795 189.404 80.5929 190.931C81.8062 192.458 83.322 193.719 85.0452 194.633C85.1583 194.691 85.2685 194.749 85.3816 194.804C84.4086 197.561 83.7982 200.434 83.5659 203.349C83.4344 205.068 83.4422 206.796 83.5891 208.514L83.5804 208.453C83.2091 206.542 82.1898 204.818 80.6945 203.572C78.4736 201.747 75.3358 201.076 72.9398 199.609C72.6852 199.446 72.3891 199.358 72.0865 199.358C71.7839 199.357 71.4874 199.443 71.232 199.605C70.9766 199.767 70.7729 199.999 70.6449 200.273C70.517 200.548 70.4701 200.853 70.5098 201.153L70.5196 201.217C70.8768 201.362 71.2246 201.53 71.5609 201.718C71.7534 201.827 71.9418 201.942 72.1261 202.064C72.3577 202.219 72.5371 202.44 72.6409 202.698C72.7447 202.957 72.768 203.241 72.7078 203.513C72.6475 203.785 72.5065 204.032 72.3033 204.222C72.1001 204.413 71.844 204.537 71.5688 204.58L71.5406 204.584C71.5203 204.587 71.5029 204.59 71.4826 204.593C72.0928 206.05 72.9494 207.391 74.0147 208.558C75.3306 209.97 76.9212 211.098 78.6888 211.874C80.4564 212.649 82.3637 213.056 84.2939 213.068H84.2968C84.8208 215.345 85.58 217.561 86.5621 219.681H94.6544C94.6834 219.591 94.7095 219.498 94.7356 219.408C93.9866 219.456 93.2346 219.411 92.4964 219.275C93.0969 218.538 93.6972 217.796 94.2976 217.059C94.311 217.045 94.3236 217.031 94.3354 217.016C94.6399 216.639 94.9474 216.264 95.2519 215.887L95.2521 215.887C95.2683 214.731 95.1354 213.578 94.8572 212.456ZM85.5904 194.227L85.5947 194.221L85.5904 194.232V194.227ZM83.798 210.385L83.7284 210.228C83.7313 210.115 83.7313 210.002 83.7284 209.886C83.7284 209.854 83.7226 209.822 83.7226 209.79C83.7487 209.991 83.7719 210.191 83.8009 210.391L83.798 210.385Z" fill="#6CB850" fill-opacity="0.94"/>
<path d="M44.6809 103.679C44.3782 103.679 44.088 103.558 43.8739 103.344C43.6598 103.13 43.5394 102.84 43.5391 102.537V94.7727C43.5391 94.4699 43.6594 94.1794 43.8735 93.9653C44.0876 93.7512 44.3781 93.6309 44.6809 93.6309C44.9837 93.6309 45.2742 93.7512 45.4883 93.9653C45.7024 94.1794 45.8227 94.4699 45.8227 94.7727V102.537C45.8224 102.84 45.702 103.13 45.4879 103.344C45.2739 103.558 44.9836 103.679 44.6809 103.679Z" fill="#575A89"/>
<path d="M75.0527 73.991C75.0531 73.6882 75.1735 73.398 75.3876 73.184C75.6016 72.9699 75.8918 72.8495 76.1946 72.8491H83.9591C84.2619 72.8491 84.5523 72.9694 84.7665 73.1836C84.9806 73.3977 85.1009 73.6881 85.1009 73.991C85.1009 74.2938 84.9806 74.5842 84.7665 74.7984C84.5523 75.0125 84.2619 75.1328 83.9591 75.1328H76.1946C75.8918 75.1324 75.6016 75.012 75.3876 74.798C75.1735 74.5839 75.0531 74.2937 75.0527 73.991Z" fill="white"/>
<path d="M44.9094 131.996C44.6067 131.996 44.3165 131.876 44.1024 131.662C43.8883 131.448 43.7679 131.157 43.7676 130.855V123.09C43.7676 122.787 43.8879 122.497 44.102 122.283C44.3162 122.069 44.6066 121.948 44.9094 121.948C45.2123 121.948 45.5027 122.069 45.7168 122.283C45.931 122.497 46.0513 122.787 46.0513 123.09V130.855C46.0509 131.157 45.9305 131.448 45.7164 131.662C45.5024 131.876 45.2121 131.996 44.9094 131.996Z" fill="#575A89"/>
<path d="M88.2981 75.1328C88.9287 75.1328 89.4399 74.6216 89.4399 73.991C89.4399 73.3603 88.9287 72.8491 88.2981 72.8491C87.6675 72.8491 87.1562 73.3603 87.1562 73.991C87.1562 74.6216 87.6675 75.1328 88.2981 75.1328Z" fill="white"/>
<path d="M392.309 223.167L0.544209 223.307C0.400249 223.307 0.262332 223.249 0.160684 223.147C0.0590371 223.045 0.00195312 222.907 0.00195312 222.763C0.00195312 222.619 0.0590371 222.481 0.160684 222.379C0.262332 222.277 0.400249 222.22 0.544209 222.219L392.309 222.079C392.454 222.079 392.592 222.136 392.694 222.238C392.796 222.34 392.853 222.479 392.853 222.623C392.853 222.767 392.796 222.905 392.694 223.007C392.592 223.109 392.454 223.167 392.309 223.167Z" fill="#CACACA"/>
<path d="M167.519 103.271L165.459 103.712C165.445 102.85 165.338 101.992 165.138 101.154C164.951 102.181 164.556 103.159 163.978 104.028L152.159 106.552L140.813 94.5777C140.795 88.5905 144.12 84.0405 150.081 84.0405C150.441 84.0405 150.813 84.0578 151.19 84.0924C154.41 83.5534 157.715 84.285 160.407 86.1334C163.099 87.9817 164.969 90.8025 165.623 94.0019C169.848 98.1623 168.316 100.608 167.519 103.271Z" fill="#B66F0D"/>
<path d="M173.329 243.308H177.616L179.656 226.772L173.328 226.772L173.329 243.308Z" fill="#FFB6B6"/>
<path d="M172.267 241.193L179.044 240.789V243.692L185.486 248.142C185.805 248.362 186.044 248.677 186.171 249.043C186.297 249.408 186.303 249.805 186.187 250.174C186.072 250.543 185.842 250.866 185.531 251.095C185.219 251.324 184.843 251.448 184.456 251.448H176.388L174.997 248.576L174.454 251.448H171.412L172.267 241.193Z" fill="#2F2E41"/>
<path d="M123.105 238.642L126.834 240.758L136.768 227.382L131.265 224.26L123.105 238.642Z" fill="#FFB6B6"/>
<path d="M123.224 236.278L129.318 239.27L127.885 241.796L131.293 248.845C131.461 249.194 131.514 249.586 131.443 249.967C131.372 250.347 131.182 250.695 130.899 250.959C130.617 251.223 130.258 251.39 129.874 251.436C129.49 251.482 129.101 251.403 128.765 251.212L121.748 247.231L121.955 244.047L120.066 246.277L117.42 244.775L123.224 236.278Z" fill="#2F2E41"/>
<path d="M189.175 106.168C188.626 106.247 188.1 106.446 187.636 106.751C187.172 107.055 186.78 107.458 186.489 107.93C186.197 108.402 186.012 108.932 185.948 109.484C185.883 110.035 185.94 110.594 186.115 111.121L179.555 116.799L182.033 121.627L191.184 113.478C192.05 113.126 192.756 112.469 193.17 111.63C193.583 110.792 193.674 109.832 193.427 108.931C193.179 108.029 192.609 107.251 191.826 106.741C191.042 106.232 190.099 106.028 189.175 106.168Z" fill="#FFB6B6"/>
<path d="M182.57 125.693C180.382 129.007 175.478 132.208 168.199 135.046C167.798 135.207 167.367 135.283 166.935 135.268C166.503 135.254 166.078 135.151 165.688 134.964C162.941 133.714 161.181 129.066 161.015 128.616L155.695 121.439C155.601 121.335 153.113 118.511 153.398 115.736C153.462 115.154 153.651 114.593 153.952 114.091C154.254 113.59 154.66 113.159 155.144 112.83C159.171 109.844 168.197 120.213 169.368 121.592L175.258 118.003L179.55 116.088L183.015 111.872L187.894 116.859L183.506 123.84C183.272 124.494 182.958 125.116 182.57 125.693Z" fill="#2F2E41"/>
<path d="M167.269 138.409C167.269 138.409 179.874 158.488 177.591 160.771C175.307 163.055 171.753 163.655 171.753 163.655L163.889 153.463L167.269 138.409Z" fill="#2F2E41"/>
<path d="M156.125 110.987L162.066 115.006C164.827 116.874 166.904 119.591 167.982 122.746C169.059 125.901 169.078 129.321 168.036 132.488L166.364 137.571L156.125 110.987Z" fill="#2F2E41"/>
<path d="M145.619 165.795L144.825 168.562L142.115 201.922L128.574 227.157L135.037 231.773L153.501 207.769L160.804 183.935L172.273 236.697L180.89 236.081L174.906 162.928L163.55 142.337L145.619 165.795Z" fill="#2F2E41"/>
<path d="M155.115 111.997L163.384 118.755C165.198 120.238 166.505 122.25 167.122 124.511C167.402 125.538 167.535 126.599 167.517 127.663L167.27 142.337L174.852 162.598C174.852 162.598 154.298 170.362 151.558 163.511C148.818 156.66 155.115 111.997 155.115 111.997Z" fill="#6C63FF"/>
<path d="M157.586 167.068C147.319 167.068 144.817 167.145 144.655 167.112L144.492 167.079V160.904L146.989 149.809C146.697 146.365 146.014 141.823 146.076 137.934C146.299 123.878 145.608 110.147 145.608 110.147L151.043 105.131L153.511 106.738L158.091 111.317C163.414 124.417 167.638 136.75 167.664 137.542L167.999 151.179L166.629 156.66C160.43 161.036 166.094 167.068 157.586 167.068Z" fill="#2F2E41"/>
<path opacity="0.2" d="M147.912 122.393L146.664 130.184L155.114 133.669L147.912 122.393Z" fill="black"/>
<path d="M156.424 103.67C160.993 103.67 164.697 99.9658 164.697 95.3967C164.697 90.8276 160.993 87.1235 156.424 87.1235C151.854 87.1235 148.15 90.8276 148.15 95.3967C148.15 99.9658 151.854 103.67 156.424 103.67Z" fill="#FFB6B6"/>
<path opacity="0.2" d="M142.562 137.374C144.764 139.924 147.751 141.669 151.053 142.337C154.355 143.004 157.785 142.555 160.804 141.061L162.605 140.17L142.562 137.374Z" fill="black"/>
<path d="M171.351 135.47C170.982 135.055 170.527 134.726 170.017 134.507C169.507 134.287 168.955 134.182 168.401 134.199C167.846 134.216 167.301 134.354 166.806 134.604C166.31 134.854 165.875 135.209 165.532 135.645L157.179 133.3L154.516 138.029L166.359 141.175C167.129 141.703 168.067 141.93 168.994 141.813C169.922 141.696 170.774 141.243 171.389 140.54C172.004 139.837 172.34 138.932 172.333 137.998C172.327 137.063 171.977 136.164 171.351 135.47Z" fill="#FFB6B6"/>
<path d="M151.417 140.717C147.446 140.717 142.072 138.389 135.693 133.879C135.337 133.633 135.037 133.315 134.811 132.947C134.584 132.578 134.437 132.167 134.378 131.738C133.907 128.757 136.815 124.727 137.1 124.341L140.157 115.947C140.192 115.81 141.177 112.178 143.65 110.886C144.17 110.619 144.743 110.468 145.327 110.443C145.912 110.418 146.495 110.52 147.037 110.742C151.747 112.457 148.069 125.703 147.564 127.44L153.805 130.377L157.768 132.903L163.196 133.471L161.722 140.291L153.479 140.476C152.805 140.641 152.112 140.722 151.417 140.717Z" fill="#2F2E41"/>
<path d="M166.345 89.9542C165.683 90.8157 163.401 91.5776 160.691 92.1923C160.696 92.1361 160.696 92.0798 160.696 92.0235C160.682 91.1616 160.575 90.3036 160.375 89.4649C160.188 90.492 159.793 91.4701 159.215 92.3395C159.172 92.4045 159.129 92.4694 159.081 92.5343C156.756 92.9932 154.297 93.3483 152.371 93.5863C153.695 98.3571 158.774 102.271 158.224 105.171L143.344 108.21C143.436 107.005 143.339 105.793 143.059 104.617C142.774 106.169 142.022 107.596 140.903 108.708L139.639 108.968L139.262 107.111C135.998 99.2706 140.548 91.2443 148.003 87.0926C149.332 85.1001 151.396 83.7148 153.743 83.2396L155.6 82.8586C156.772 82.6189 157.979 82.6124 159.153 82.8392C160.327 83.0661 161.445 83.522 162.442 84.1809C163.44 84.8398 164.298 85.6888 164.968 86.6793C165.638 87.6699 166.106 88.7827 166.345 89.9542Z" fill="#E15600"/>
<path d="M201.889 239.94L202.109 234.993C204.403 233.767 206.961 233.119 209.562 233.106C205.983 236.032 206.43 241.674 204.003 245.609C203.237 246.831 202.206 247.864 200.986 248.633C199.766 249.402 198.388 249.886 196.955 250.05L193.96 251.884C193.549 249.593 193.64 247.24 194.226 244.987C194.812 242.734 195.879 240.635 197.355 238.834C198.192 237.832 199.153 236.939 200.214 236.177C200.931 238.069 201.889 239.94 201.889 239.94Z" fill="#44A620"/>
<path d="M209.151 252H104.841C104.697 251.999 104.559 251.942 104.458 251.84C104.356 251.738 104.299 251.6 104.299 251.456C104.299 251.312 104.356 251.174 104.458 251.072C104.559 250.97 104.697 250.913 104.841 250.912H209.151C209.223 250.912 209.294 250.926 209.36 250.953C209.426 250.98 209.486 251.02 209.537 251.071C209.588 251.121 209.628 251.181 209.655 251.247C209.683 251.314 209.697 251.384 209.697 251.456C209.697 251.527 209.683 251.598 209.655 251.664C209.628 251.73 209.588 251.791 209.537 251.841C209.486 251.892 209.426 251.932 209.36 251.959C209.294 251.986 209.223 252 209.151 252Z" fill="#753C44"/>
</g>
<defs>
<clipPath id="clip0_111_24">
<rect width="392.853" height="252" fill="white"/>
</clipPath>
</defs>
</svg>
