<svg width="533" height="327" viewBox="0 0 533 327" fill="none" xmlns="http://www.w3.org/2000/svg">
<g clip-path="url(#clip0_100_2)">
<path d="M113.526 32.7559H79.5353C76.2674 32.7585 73.1343 33.8899 70.8236 35.9016C68.5129 37.9134 67.2134 40.6412 67.2105 43.4863V75.5702C66.7759 75.5476 66.3413 75.5137 65.9131 75.4685C57.8605 74.7309 50.2046 72.0494 43.8088 67.7263C37.4129 63.4032 32.5314 57.6105 29.7146 51.0013C26.8978 44.392 26.2577 37.229 27.8665 30.32C29.4753 23.411 33.2691 17.0306 38.82 11.8983C44.3709 6.76602 51.4583 3.08588 59.283 1.27282C67.1077 -0.540247 75.3585 -0.414129 83.1053 1.63696C90.8521 3.68805 97.7867 7.58254 103.127 12.8813C108.468 18.1801 112.002 24.6725 113.331 31.6264C113.403 31.9991 113.467 32.3776 113.526 32.7559Z" fill="#6CB850" fill-opacity="0.94"/>
<path d="M113.526 32.7559H79.5353C76.2674 32.7585 73.1343 33.8899 70.8236 35.9016C68.5129 37.9134 67.2134 40.6412 67.2105 43.4863V75.5702C66.7759 75.5476 66.3413 75.5137 65.9131 75.4685C57.8605 74.7309 50.2046 72.0494 43.8088 67.7263C37.4129 63.4032 32.5314 57.6105 29.7146 51.0013C26.8978 44.392 26.2577 37.229 27.8665 30.32C29.4753 23.411 33.2691 17.0306 38.82 11.8983C44.3709 6.76602 51.4583 3.08588 59.283 1.27282C67.1077 -0.540247 75.3585 -0.414129 83.1053 1.63696C90.8521 3.68805 97.7867 7.58254 103.127 12.8813C108.468 18.1801 112.002 24.6725 113.331 31.6264C113.403 31.9991 113.467 32.3776 113.526 32.7559Z" fill="#6CB850" fill-opacity="0.94"/>
<path d="M519.378 31.6265H84.1182C80.5066 31.6299 77.0441 32.8805 74.4903 35.104C71.9365 37.3274 70.5 40.342 70.4961 43.4864V243.411C70.5 246.555 71.9365 249.57 74.4903 251.793C77.0441 254.016 80.5066 255.267 84.1182 255.27H519.378C522.99 255.267 526.453 254.016 529.006 251.793C531.56 249.57 532.997 246.555 533.001 243.411V43.4864C532.997 40.342 531.56 37.3274 529.006 35.104C526.453 32.8805 522.99 31.6299 519.378 31.6265ZM531.703 243.411C531.7 246.256 530.401 248.983 528.09 250.995C525.779 253.007 522.646 254.138 519.378 254.141H84.1182C80.8504 254.138 77.7173 253.007 75.4066 250.995C73.0959 248.983 71.7964 246.256 71.7934 243.411V43.4864C71.7964 40.6413 73.0959 37.9135 75.4066 35.9017C77.7173 33.8899 80.8504 32.7586 84.1182 32.756H519.378C522.646 32.7586 525.779 33.8899 528.09 35.9017C530.401 37.9135 531.7 40.6413 531.703 43.4864V243.411Z" fill="#3F3D56"/>
<path d="M497.971 64.0265H105.524C105.352 64.0265 105.187 63.967 105.065 63.8611C104.943 63.7552 104.875 63.6115 104.875 63.4617C104.875 63.3119 104.943 63.1683 105.065 63.0624C105.187 62.9565 105.352 62.897 105.524 62.897H497.971C498.143 62.897 498.308 62.9565 498.43 63.0624C498.552 63.1683 498.62 63.3119 498.62 63.4617C498.62 63.6115 498.552 63.7552 498.43 63.8611C498.308 63.967 498.143 64.0265 497.971 64.0265Z" fill="#3F3D56"/>
<path d="M216.448 230.986C216.275 230.986 216.11 230.926 215.989 230.821C215.867 230.715 215.799 230.571 215.799 230.421V44.616C215.799 44.4662 215.867 44.3226 215.989 44.2167C216.11 44.1108 216.275 44.0513 216.448 44.0513C216.62 44.0513 216.785 44.1108 216.906 44.2167C217.028 44.3226 217.096 44.4662 217.096 44.616V230.421C217.096 230.571 217.028 230.715 216.906 230.821C216.785 230.926 216.62 230.986 216.448 230.986Z" fill="#3F3D56"/>
<path d="M314.397 230.986C314.225 230.986 314.06 230.926 313.938 230.821C313.816 230.715 313.748 230.571 313.748 230.421V44.616C313.748 44.4662 313.816 44.3226 313.938 44.2167C314.06 44.1108 314.225 44.0513 314.397 44.0513C314.569 44.0513 314.734 44.1108 314.855 44.2167C314.977 44.3226 315.045 44.4662 315.045 44.616V230.421C315.045 230.571 314.977 230.715 314.855 230.821C314.734 230.926 314.569 230.986 314.397 230.986Z" fill="#3F3D56"/>
<path d="M412.346 230.986C412.174 230.986 412.009 230.926 411.887 230.821C411.766 230.715 411.697 230.571 411.697 230.421V44.616C411.697 44.4662 411.766 44.3226 411.887 44.2167C412.009 44.1108 412.174 44.0513 412.346 44.0513C412.518 44.0513 412.683 44.1108 412.805 44.2167C412.926 44.3226 412.995 44.4662 412.995 44.616V230.421C412.995 230.571 412.926 230.715 412.805 230.821C412.683 230.926 412.518 230.986 412.346 230.986Z" fill="#3F3D56"/>
<path d="M153.471 122.319H129.769C128.995 122.318 128.253 122.05 127.706 121.574C127.158 121.098 126.85 120.452 126.85 119.778V95.4257C126.85 94.7519 127.158 94.1059 127.706 93.6295C128.253 93.153 128.995 92.885 129.769 92.8843H153.471C154.245 92.885 154.987 93.153 155.534 93.6295C156.082 94.1059 156.389 94.7519 156.39 95.4257V119.778C156.389 120.452 156.082 121.098 155.534 121.574C154.987 122.05 154.245 122.318 153.471 122.319Z" fill="#6C63FF"/>
<path d="M187.202 191.785H163.499C162.725 191.784 161.983 191.516 161.436 191.039C160.889 190.563 160.581 189.917 160.58 189.243V164.891C160.581 164.217 160.889 163.571 161.436 163.095C161.983 162.618 162.725 162.35 163.499 162.35H187.202C187.976 162.35 188.718 162.618 189.265 163.095C189.812 163.571 190.12 164.217 190.121 164.891V189.243C190.12 189.917 189.812 190.563 189.265 191.039C188.718 191.516 187.976 191.784 187.202 191.785Z" fill="#D9D9D9"/>
<path d="M263.747 137.003H240.044C239.27 137.003 238.528 136.735 237.981 136.258C237.434 135.782 237.126 135.136 237.125 134.462V110.11C237.126 109.436 237.434 108.79 237.981 108.314C238.528 107.837 239.27 107.569 240.044 107.568H263.747C264.52 107.569 265.262 107.837 265.81 108.314C266.357 108.79 266.665 109.436 266.666 110.11V134.462C266.665 135.136 266.357 135.782 265.81 136.258C265.262 136.735 264.52 137.003 263.747 137.003Z" fill="#6C63FF"/>
<path d="M362.993 110.459H339.29C338.516 110.459 337.774 110.191 337.227 109.714C336.68 109.238 336.372 108.592 336.371 107.918V83.5658C336.372 82.892 336.68 82.246 337.227 81.7696C337.774 81.2932 338.516 81.0252 339.29 81.0244H362.993C363.767 81.0252 364.509 81.2932 365.056 81.7696C365.603 82.246 365.911 82.892 365.912 83.5658V107.918C365.911 108.592 365.603 109.238 365.056 109.714C364.509 110.191 363.767 110.459 362.993 110.459Z" fill="#6C63FF"/>
<path d="M454.456 110.459H430.753C429.979 110.459 429.237 110.191 428.69 109.714C428.143 109.238 427.835 108.592 427.834 107.918V83.5658C427.835 82.892 428.143 82.246 428.69 81.7696C429.237 81.2932 429.979 81.0252 430.753 81.0244H454.456C455.229 81.0252 455.971 81.2932 456.519 81.7696C457.066 82.246 457.374 82.892 457.375 83.5658V107.918C457.374 108.592 457.066 109.238 456.519 109.714C455.971 110.191 455.229 110.459 454.456 110.459Z" fill="#6C63FF"/>
<path d="M496.62 117.237H472.917C472.143 117.236 471.401 116.968 470.854 116.491C470.307 116.015 469.999 115.369 469.998 114.695V90.3432C469.999 89.6694 470.307 89.0234 470.854 88.5469C471.401 88.0705 472.143 87.8025 472.917 87.8018H496.62C497.394 87.8025 498.135 88.0705 498.683 88.5469C499.23 89.0234 499.538 89.6694 499.539 90.3432V114.695C499.538 115.369 499.23 116.015 498.683 116.491C498.135 116.968 497.394 117.236 496.62 117.237Z" fill="#E6E6E6"/>
<path d="M477.809 160.723H454.107C453.333 160.722 452.591 160.454 452.043 159.978C451.496 159.501 451.188 158.855 451.188 158.182V133.829C451.188 133.156 451.496 132.51 452.043 132.033C452.591 131.557 453.333 131.289 454.107 131.288H477.809C478.583 131.289 479.325 131.557 479.872 132.033C480.419 132.51 480.727 133.156 480.728 133.829V158.182C480.727 158.855 480.419 159.501 479.872 159.978C479.325 160.454 478.583 160.722 477.809 160.723Z" fill="#E6E6E6"/>
<path d="M397.372 151.687H373.669C372.895 151.686 372.153 151.418 371.606 150.942C371.059 150.465 370.751 149.819 370.75 149.145V124.793C370.751 124.12 371.059 123.474 371.606 122.997C372.153 122.521 372.895 122.253 373.669 122.252H397.372C398.145 122.253 398.887 122.521 399.435 122.997C399.982 123.474 400.29 124.12 400.291 124.793V149.145C400.29 149.819 399.982 150.465 399.435 150.942C398.887 151.418 398.145 151.686 397.372 151.687Z" fill="#FF6584"/>
<path d="M351.317 160.723H327.614C326.84 160.722 326.098 160.454 325.551 159.978C325.004 159.501 324.696 158.855 324.695 158.182V133.829C324.696 133.156 325.004 132.51 325.551 132.033C326.098 131.557 326.84 131.289 327.614 131.288H351.317C352.091 131.289 352.833 131.557 353.38 132.033C353.927 132.51 354.235 133.156 354.236 133.829V158.182C354.235 158.855 353.927 159.501 353.38 159.978C352.833 160.454 352.091 160.722 351.317 160.723Z" fill="#E6E6E6"/>
<path d="M252.069 199.126H228.366C227.592 199.126 226.85 198.858 226.303 198.381C225.756 197.905 225.448 197.259 225.447 196.585V172.233C225.448 171.559 225.756 170.913 226.303 170.437C226.85 169.96 227.592 169.692 228.366 169.691H252.069C252.843 169.692 253.585 169.96 254.132 170.437C254.679 170.913 254.987 171.559 254.988 172.233V196.585C254.987 197.259 254.679 197.905 254.132 198.381C253.585 198.858 252.843 199.126 252.069 199.126Z" fill="#E6E6E6"/>
<path d="M132.065 166.935H108.362C107.588 166.935 106.847 166.667 106.299 166.19C105.752 165.714 105.444 165.068 105.443 164.394V140.042C105.444 139.368 105.752 138.722 106.299 138.246C106.847 137.769 107.588 137.501 108.362 137.5H132.065C132.839 137.501 133.581 137.769 134.128 138.246C134.675 138.722 134.983 139.368 134.984 140.042V164.394C134.983 165.068 134.675 165.714 134.128 166.19C133.581 166.667 132.839 166.935 132.065 166.935Z" fill="#FF6584"/>
<path d="M198.877 122.319H175.175C174.401 122.318 173.659 122.05 173.112 121.574C172.565 121.098 172.257 120.452 172.256 119.778V95.4257C172.257 94.7519 172.565 94.1059 173.112 93.6295C173.659 93.153 174.401 92.885 175.175 92.8843H198.877C199.651 92.885 200.393 93.153 200.941 93.6295C201.488 94.1059 201.796 94.7519 201.796 95.4257V119.778C201.796 120.452 201.488 121.098 200.941 121.574C200.393 122.05 199.651 122.318 198.877 122.319Z" fill="#E6E6E6"/>
<path d="M179.473 54.7812H142.499C141.811 54.7812 141.151 54.5432 140.664 54.1196C140.178 53.6959 139.904 53.1213 139.904 52.5222C139.904 51.9231 140.178 51.3485 140.664 50.9248C141.151 50.5012 141.811 50.2632 142.499 50.2632H179.473C180.162 50.2632 180.822 50.5012 181.308 50.9248C181.795 51.3485 182.068 51.9231 182.068 52.5222C182.068 53.1213 181.795 53.6959 181.308 54.1196C180.822 54.5432 180.162 54.7812 179.473 54.7812Z" fill="#CCCCCC"/>
<path d="M283.909 54.7812H246.935C246.246 54.7812 245.586 54.5432 245.1 54.1196C244.613 53.6959 244.34 53.1213 244.34 52.5222C244.34 51.9231 244.613 51.3485 245.1 50.9248C245.586 50.5012 246.246 50.2632 246.935 50.2632H283.909C284.597 50.2632 285.257 50.5012 285.744 50.9248C286.23 51.3485 286.504 51.9231 286.504 52.5222C286.504 53.1213 286.23 53.6959 285.744 54.1196C285.257 54.5432 284.597 54.7812 283.909 54.7812Z" fill="#CCCCCC"/>
<path d="M381.858 54.7812H344.884C344.196 54.7812 343.536 54.5432 343.049 54.1196C342.562 53.6959 342.289 53.1213 342.289 52.5222C342.289 51.9231 342.562 51.3485 343.049 50.9248C343.536 50.5012 344.196 50.2632 344.884 50.2632H381.858C382.546 50.2632 383.206 50.5012 383.693 50.9248C384.18 51.3485 384.453 51.9231 384.453 52.5222C384.453 53.1213 384.18 53.6959 383.693 54.1196C383.206 54.5432 382.546 54.7812 381.858 54.7812Z" fill="#CCCCCC"/>
<path d="M473.323 54.7812H436.349C435.66 54.7812 435 54.5432 434.514 54.1196C434.027 53.6959 433.754 53.1213 433.754 52.5222C433.754 51.9231 434.027 51.3485 434.514 50.9248C435 50.5012 435.66 50.2632 436.349 50.2632H473.323C474.011 50.2632 474.671 50.5012 475.158 50.9248C475.644 51.3485 475.918 51.9231 475.918 52.5222C475.918 53.1213 475.644 53.6959 475.158 54.1196C474.671 54.5432 474.011 54.7812 473.323 54.7812Z" fill="#CCCCCC"/>
<path d="M96.6576 220.194C95.7085 220.113 94.7914 219.852 93.9708 219.429C93.1501 219.006 92.446 218.432 91.9079 217.746C91.3699 217.061 91.011 216.281 90.8566 215.462C90.7021 214.642 90.7559 213.804 91.0141 213.004L74.3867 199.529L83.178 197.587L99.5284 209.133C101.042 209.599 102.306 210.533 103.082 211.757C103.857 212.981 104.09 214.41 103.736 215.773C103.382 217.137 102.466 218.34 101.162 219.155C99.857 219.969 98.2544 220.339 96.6576 220.194Z" fill="#FFB8B8"/>
<path d="M119.618 319.796H127.571L131.354 293.089H119.617L119.618 319.796Z" fill="#FFB8B8"/>
<path d="M142.908 326.224L117.914 326.225L117.914 317.818L133.251 317.817C135.812 317.817 138.268 318.703 140.08 320.279C141.891 321.856 142.908 323.994 142.908 326.224Z" fill="#2F2E41"/>
<path d="M65.0918 314.796L72.7773 316.578L84.3243 291.618L72.9823 288.989L65.0918 314.796Z" fill="#FFB8B8"/>
<path d="M85.6973 326.226L61.5444 320.629L64.0283 312.504L78.8494 315.939C81.3243 316.513 83.4362 317.919 84.7204 319.848C86.0047 321.777 86.356 324.071 85.6973 326.226Z" fill="#2F2E41"/>
<path d="M129.71 314.739H117.575C116.809 314.742 116.069 314.494 115.502 314.045C114.934 313.597 114.58 312.979 114.509 312.315L107.143 245.712C107.089 245.224 106.842 244.767 106.443 244.419C106.045 244.072 105.52 243.856 104.959 243.808C104.398 243.761 103.836 243.884 103.368 244.158C102.9 244.431 102.555 244.838 102.394 245.308L81.0049 307.544C80.7787 308.206 80.2679 308.766 79.579 309.107C78.8901 309.449 78.0764 309.546 77.3075 309.378L66.0185 306.92C65.6245 306.834 65.2539 306.682 64.928 306.471C64.602 306.26 64.3272 305.995 64.1194 305.691C63.9115 305.387 63.7748 305.051 63.7169 304.701C63.6591 304.351 63.6813 303.994 63.7824 303.652C63.9667 303.025 82.2116 240.948 82.371 240.309C86.5048 213.784 91.4505 206.676 94.1074 202.858C94.3274 202.542 94.5295 202.251 94.7114 201.977C94.9392 201.633 96.3412 198.224 97.2306 196.01C97.3461 195.65 97.5461 195.315 97.818 195.025C98.0898 194.736 98.4277 194.499 98.8102 194.329C109.974 189.358 123.036 192.799 126.774 193.972C127.394 194.162 127.926 194.521 128.291 194.997C139.503 209.721 134 295.237 132.784 312.23C132.733 312.91 132.387 313.547 131.816 314.013C131.246 314.479 130.493 314.739 129.71 314.739Z" fill="#2F2E41"/>
<path d="M98.393 146.038C107.192 146.038 114.325 139.828 114.325 132.167C114.325 124.506 107.192 118.296 98.393 118.296C89.594 118.296 82.4609 124.506 82.4609 132.167C82.4609 139.828 89.594 146.038 98.393 146.038Z" fill="#FFB8B8"/>
<path d="M96.7054 198.703L96.5909 198.606C96.3761 198.425 75.1485 180.32 77.8957 163.578C79.0706 156.417 85.7254 151.841 97.1404 150.345C101.334 149.803 105.612 150.597 109.187 152.58C112.762 154.564 115.394 157.605 116.6 161.144L127.887 194.738L96.7054 198.703Z" fill="#44A620"/>
<path d="M85.8406 211.581L70.7146 198.495C69.6803 197.595 68.9295 196.479 68.5341 195.253C68.1388 194.028 68.1124 192.734 68.4574 191.497L75.78 165.564C75.9993 164.787 76.3995 164.057 76.9558 163.42C77.5121 162.783 78.2126 162.252 79.0141 161.861C79.8155 161.469 80.7007 161.224 81.615 161.143C82.5293 161.061 83.4532 161.143 84.3294 161.384C85.9996 161.853 87.3947 162.87 88.2191 164.218C89.0436 165.567 89.2327 167.142 88.7463 168.61L81.0372 191.424L93.5035 203.079L85.8406 211.581Z" fill="#44A620"/>
<path d="M166.971 166.921C166.571 167.675 165.986 168.343 165.257 168.879C164.529 169.414 163.674 169.804 162.753 170.021C161.833 170.238 160.869 170.277 159.929 170.134C158.99 169.992 158.098 169.672 157.316 169.196L137.123 178.309L138.016 170.568L155.917 160.923C156.921 159.832 158.35 159.1 159.932 158.865C161.515 158.629 163.142 158.908 164.504 159.647C165.867 160.387 166.87 161.536 167.325 162.876C167.779 164.217 167.653 165.656 166.971 166.921Z" fill="#FFB8B8"/>
<path d="M155.111 172.683L135.426 180.089C134.116 180.578 132.683 180.765 131.266 180.633C129.848 180.5 128.494 180.053 127.332 179.333L102.301 163.718C101.554 163.252 100.924 162.657 100.452 161.971C99.9793 161.284 99.6736 160.521 99.5536 159.728C99.4336 158.934 99.5019 158.128 99.7542 157.359C100.007 156.589 100.438 155.873 101.021 155.254C102.141 154.078 103.743 153.328 105.488 153.163C107.232 152.998 108.982 153.43 110.367 154.369L131.831 169.076L148.891 163.33L155.111 172.683Z" fill="#44A620"/>
<path d="M101.035 136.612C103.001 134.467 106.673 134.352 109.373 132.938C112.909 131.085 114.371 126.945 113.232 123.492C112.092 120.038 108.731 117.347 104.878 116.059C101.024 114.772 96.7373 114.756 92.6723 115.378C86.6201 116.305 80.6614 118.764 76.9702 123.042C73.279 127.319 72.3396 133.583 75.6849 138.071C77.2224 140.134 79.5959 141.837 80.2097 144.237C81.0155 147.388 78.4768 150.427 75.757 152.621C72.6585 155.121 69.1036 157.215 66.3889 160.032C63.6743 162.85 61.864 166.7 63.1028 170.216C64.1406 173.162 67.1608 175.333 70.4726 176.42C73.7844 177.506 77.3914 177.664 80.9301 177.724C84.3662 177.782 88.0159 177.71 90.9105 176.096C94.0094 174.37 95.6639 171.094 95.7862 167.892C95.9084 164.691 94.6796 161.554 93.0328 158.69C92.0512 156.982 90.9099 155.328 90.2576 153.505C89.6054 151.682 89.4924 149.614 90.5369 147.935C91.6349 146.17 93.8563 145.106 96.1182 144.719C96.2357 144.699 96.36 144.681 96.4901 144.665C97.1337 144.593 97.7536 144.407 98.3125 144.12C98.8713 143.832 99.3574 143.45 99.7415 142.994C100.125 142.539 100.399 142.02 100.547 141.47C100.694 140.92 100.712 140.349 100.598 139.793C100.341 138.542 100.363 137.345 101.035 136.612Z" fill="#2F2E41"/>
<path d="M313.458 320.387H305.506L301.723 293.681L313.46 293.681L313.458 320.387Z" fill="#A0616A"/>
<path d="M299.825 318.409H315.162V326.816H290.168C290.168 325.712 290.418 324.619 290.903 323.599C291.388 322.579 292.1 321.652 292.996 320.871C293.893 320.09 294.958 319.471 296.129 319.049C297.301 318.626 298.557 318.409 299.825 318.409Z" fill="#2F2E41"/>
<path d="M371.161 312.544L363.927 315.42L347.74 292.497L358.417 288.251L371.161 312.544Z" fill="#A0616A"/>
<path d="M357.817 315.676L371.768 310.128L375.78 317.776L353.045 326.816C352.518 325.812 352.224 324.727 352.179 323.624C352.133 322.521 352.338 321.42 352.781 320.386C353.224 319.351 353.897 318.403 354.761 317.595C355.625 316.787 356.664 316.135 357.817 315.676Z" fill="#2F2E41"/>
<path d="M348.002 230.34C348.764 229.841 349.391 229.202 349.839 228.469C350.287 227.736 350.545 226.927 350.594 226.098C350.644 225.268 350.484 224.44 350.126 223.67C349.768 222.901 349.22 222.209 348.522 221.644L357.871 203.176L345.994 204.929L338.938 222.197C337.924 223.281 337.403 224.652 337.473 226.048C337.543 227.445 338.198 228.77 339.316 229.774C340.433 230.778 341.934 231.39 343.536 231.494C345.137 231.599 346.726 231.188 348.002 230.34Z" fill="#A0616A"/>
<path d="M312.95 313.345H305.353C304.616 313.343 303.908 313.099 303.368 312.662C302.828 312.225 302.498 311.627 302.442 310.988L298.299 214.664C298.268 214.294 298.33 213.924 298.481 213.578C298.632 213.232 298.867 212.919 299.172 212.66C299.476 212.402 299.841 212.204 300.242 212.082C300.644 211.959 301.071 211.914 301.494 211.95L345.431 216.013C346.144 216.073 346.805 216.359 347.291 216.817C347.777 217.274 348.053 217.871 348.067 218.494L348.987 260.984C348.992 261.214 349.044 261.442 349.139 261.658L367.162 302.35C367.302 302.664 367.368 303 367.357 303.336C367.346 303.673 367.258 304.005 367.098 304.312C366.939 304.619 366.711 304.895 366.427 305.124C366.144 305.354 365.811 305.532 365.448 305.648L357.749 308.118C357.081 308.333 356.345 308.327 355.681 308.101C355.017 307.876 354.47 307.448 354.144 306.896L332.003 269.414C331.883 269.21 331.795 268.993 331.741 268.768L327.959 252.902C327.849 252.442 327.555 252.031 327.129 251.743C326.703 251.455 326.172 251.308 325.633 251.329C325.094 251.35 324.581 251.538 324.187 251.859C323.792 252.179 323.542 252.612 323.48 253.079L315.851 311.093C315.769 311.713 315.429 312.285 314.894 312.7C314.359 313.116 313.667 313.345 312.95 313.345Z" fill="#2F2E41"/>
<path d="M316.735 139.348C325.534 139.348 332.667 133.137 332.667 125.476C332.667 117.816 325.534 111.605 316.735 111.605C307.936 111.605 300.803 117.816 300.803 125.476C300.803 133.137 307.936 139.348 316.735 139.348Z" fill="#A0616A"/>
<path d="M327.66 223.471C316.856 223.368 306.309 220.586 297.255 215.453L297.1 215.359L297.116 215.196L303.21 153.402C303.42 151.306 304.495 149.347 306.236 147.887C307.977 146.427 310.266 145.565 312.68 145.461C320.578 145.145 331.187 145.544 336.866 149.226C345.449 154.791 349.585 163.172 348.215 172.219C345.374 190.979 348.593 216.286 348.969 219.11L348.996 219.314L348.782 219.399C342.166 222.079 334.957 223.469 327.66 223.471Z" fill="#44A620"/>
<path d="M348.896 219.215C348.447 219.214 348.003 219.132 347.592 218.975C347.181 218.817 346.812 218.587 346.509 218.299L343.024 214.989C342.647 214.629 342.383 214.191 342.257 213.717C342.131 213.242 342.147 212.748 342.304 212.281L350.251 188.864L338.16 166.757C337.595 165.722 337.457 164.55 337.768 163.437C338.042 162.459 338.651 161.578 339.512 160.908C340.374 160.238 341.449 159.811 342.595 159.683C343.741 159.556 344.904 159.734 345.932 160.194C346.959 160.654 347.802 161.374 348.35 162.26L364.758 185.438C365.425 186.379 365.816 187.447 365.897 188.55C365.979 189.653 365.748 190.756 365.225 191.763L351.856 217.552C351.636 217.979 351.297 218.35 350.871 218.634C350.444 218.918 349.943 219.105 349.413 219.179C349.242 219.203 349.069 219.215 348.896 219.215Z" fill="#44A620"/>
<path d="M236.596 174.483C237.361 174.979 238.242 175.322 239.176 175.489C240.11 175.656 241.075 175.643 242.003 175.45C242.93 175.258 243.798 174.89 244.545 174.374C245.292 173.858 245.9 173.206 246.325 172.463L269.313 175.058L264.03 165.633L243.011 164.613C241.53 164.073 239.873 164.025 238.354 164.477C236.835 164.93 235.559 165.851 234.768 167.068C233.978 168.284 233.727 169.711 234.064 171.078C234.401 172.445 235.302 173.656 236.596 174.483Z" fill="#A0616A"/>
<path d="M287.264 179.631C286.864 179.631 286.464 179.607 286.068 179.559L249.903 175.192C249.312 175.121 248.751 174.923 248.27 174.617C247.788 174.31 247.402 173.904 247.146 173.435C247.063 173.284 246.994 173.127 246.94 172.966C246.8 172.549 246.761 172.112 246.825 171.681C246.889 171.25 247.055 170.836 247.313 170.464L250.305 166.144C250.627 165.682 251.08 165.3 251.62 165.035C252.16 164.769 252.77 164.629 253.39 164.627H253.395L284.918 164.658L308.461 146.294C309.557 145.442 310.955 144.943 312.423 144.882C313.711 144.83 314.987 145.12 316.083 145.712C317.179 146.304 318.043 147.172 318.561 148.201C319.079 149.229 319.226 150.37 318.984 151.473C318.742 152.576 318.122 153.589 317.205 154.379L293.713 177.127C292.9 177.915 291.906 178.545 290.795 178.976C289.684 179.408 288.481 179.631 287.264 179.631Z" fill="#44A620"/>
<path d="M318.546 137.817C320.002 134.883 321.234 130.976 318.442 128.902C316.822 127.699 314.489 127.696 312.367 127.547C306.387 127.125 300.233 124.73 297.31 120.169C294.388 115.608 296.02 108.826 301.533 106.768C305.25 105.381 309.51 106.326 313.4 107.287L325.08 110.17C328.551 111.027 332.195 111.972 334.693 114.237C338.678 117.85 338.38 123.958 335.215 128.14C332.05 132.323 327.284 136.686 321.828 138.274L318.546 137.817Z" fill="#2F2E41"/>
<path d="M479.685 327H0.772653C0.671036 327 0.570363 326.983 0.476396 326.95C0.38243 326.916 0.297025 326.866 0.225067 326.804C0.153109 326.741 0.0960139 326.667 0.0570586 326.586C0.0181033 326.504 -0.00195312 326.416 -0.00195312 326.328C-0.00195312 326.239 0.0181033 326.152 0.0570586 326.07C0.0960139 325.988 0.153109 325.914 0.225067 325.852C0.297025 325.789 0.38243 325.74 0.476396 325.706C0.570363 325.672 0.671036 325.655 0.772653 325.655H479.685C479.786 325.655 479.887 325.672 479.981 325.706C480.075 325.74 480.16 325.789 480.232 325.852C480.304 325.914 480.361 325.988 480.4 326.07C480.439 326.152 480.459 326.239 480.459 326.328C480.459 326.416 480.439 326.504 480.4 326.586C480.361 326.667 480.304 326.741 480.232 326.804C480.16 326.866 480.075 326.916 479.981 326.95C479.887 326.983 479.786 327 479.685 327Z" fill="#3F3D56"/>
</g>
<defs>
<clipPath id="clip0_100_2">
<rect width="533" height="327" fill="white"/>
</clipPath>
</defs>
</svg>
