<svg width="461" height="247" viewBox="0 0 461 247" fill="none" xmlns="http://www.w3.org/2000/svg">
<g clip-path="url(#clip0_117_7)">
<path d="M440.537 136.555L439.093 148.609L435.509 178.548H363.508C364.07 171.838 364.839 162.179 365.66 151.753C365.741 150.711 365.826 149.663 365.907 148.609C367.966 122.4 370.219 92.7407 370.219 92.7407L379.685 94.5892L398.05 98.1688L405.534 99.6267L425.574 103.538C435.566 105.484 442.439 120.649 440.537 136.555Z" fill="#089708"/>
<path d="M386.076 44.2402L394.93 60.4817L377.912 73.1237L370.652 53.1599L386.076 44.2402Z" fill="#FFB6B6"/>
<path d="M374.802 59.6054C386.917 59.6054 396.737 49.3112 396.737 36.6127C396.737 23.9143 386.917 13.6201 374.802 13.6201C362.688 13.6201 352.867 23.9143 352.867 36.6127C352.867 49.3112 362.688 59.6054 374.802 59.6054Z" fill="#FFB6B6"/>
<path d="M373.228 41.7529C371.487 38.9743 372.17 37.521 370.712 36.4999C370.712 36.4998 370.125 36.0889 365.926 35.8547C364.986 28.7614 363.812 27.9012 363.812 27.9012C362.459 26.9098 360.452 27.2319 359.203 27.8383C356.562 29.1207 356.868 31.8908 355.089 32.4209C352.633 33.1532 348.163 29.025 347.722 24.2991C347.363 20.444 349.733 16.6999 350.672 16.8979C351.604 17.0943 353.835 14.1089 355.04 14.1549C355.862 14.1864 359.223 12.655 360.128 12.7747C361.115 12.9055 364.371 14.6865 364.507 14.2796C365.449 11.4521 365.172 10.6675 365.972 9.85863C367.39 8.42528 369.709 9.42343 373.347 9.9593C380.832 11.0619 382.138 8.47476 385.974 10.2283C387.912 11.1141 389.534 13.503 392.697 18.2447C397.122 24.8759 399.334 28.1915 399.348 32.0587C399.363 36.0025 397.541 35.7521 396.741 41.5906C395.85 48.0898 397.742 51.0616 395.675 53.1731C394.077 54.805 390.828 55.1924 389.121 53.7601C386.199 51.308 390.023 45.3911 386.79 41.0682C384.805 38.4146 380.813 37.2339 378.984 38.5456C376.917 40.0287 378.056 44.382 376.602 44.7948C375.357 45.1483 373.532 42.2371 373.228 41.7529Z" fill="#2F2E41"/>
<path d="M424.325 132.31C423.713 143.276 421.283 146.738 420.431 159.688C420.246 162.531 420.134 165.831 420.134 169.767C420.134 170.771 420.139 171.741 420.139 172.689C420.139 174.706 420.102 176.613 419.878 178.548C419.709 180.092 419.416 181.647 418.932 183.286H371.689C371.684 183.275 371.684 183.264 371.678 183.253C371.402 181.993 371.226 180.789 371.093 179.635C371.051 179.267 371.013 178.904 370.982 178.548C370.939 178.129 370.902 177.717 370.865 177.31C370.721 175.688 370.578 174.155 370.237 172.689C369.78 170.665 368.95 168.758 367.248 166.919C366.551 166.166 365.855 165.581 365.174 165.068C365.041 164.973 364.913 164.878 364.78 164.783C362.898 163.429 361.116 162.453 359.574 159.688C359.547 159.649 359.526 159.604 359.505 159.566C359.239 159.08 358.547 157.809 358.047 156.115C357.521 154.353 357.202 152.14 357.776 149.877C359.143 144.514 364.206 143.979 368.344 138.56C368.79 137.974 369.232 137.328 369.652 136.609C371.524 133.42 372.029 130.61 372.625 127.271C372.721 126.73 372.806 126.195 372.875 125.677C372.928 125.286 372.976 124.902 373.013 124.522C373.343 121.339 373.183 118.596 372.795 116.144C371.53 108.11 367.796 103.138 370.434 95.9293C371.264 93.6662 372.439 91.9658 373.625 90.5108C376.135 87.4278 378.715 85.4266 378.268 81.4464C377.816 77.4324 374.912 76.8804 374.588 73.3738C374.423 71.6012 374.976 69.7336 376.013 67.8995V67.8941C379.332 61.9902 387.618 56.5548 392.883 56.7276C393.856 56.7557 394.717 56.9841 395.435 57.4245C398.036 59.03 396.951 62.5365 400.935 67.4536C403.897 71.105 407.247 72.5657 408.519 73.2568C413.555 76.011 417.65 84.1333 420.431 94.519C420.453 94.5972 420.474 94.675 420.495 94.7589C422.213 101.265 423.426 108.651 424.027 116.144C424.282 119.316 424.431 122.504 424.463 125.66C424.49 128.179 424.436 130.365 424.325 132.31Z" fill="#6C63FF"/>
<path d="M388.948 169.879L387.986 172.688L387.379 174.45L385.975 178.547L384.348 183.286H373.887L375.642 178.547L376.456 176.34L377.806 172.688L380.072 166.556L388.948 169.879Z" fill="#FFB6B6"/>
<path d="M420.597 93.5597C420.571 93.9223 420.533 94.3235 420.496 94.7585C420.081 99.1848 419.102 107.107 417.672 116.143C416.917 120.91 416.034 125.988 415.039 131.033C412.902 141.921 410.242 152.641 407.237 159.688C406.7 160.959 406.147 162.107 405.583 163.122C405.153 163.897 404.7 164.66 404.227 165.413C402.695 167.883 400.977 170.224 399.196 172.409C399.127 172.504 399.047 172.593 398.967 172.688C398.68 173.045 398.382 173.396 398.084 173.747C396.627 175.47 395.138 177.075 393.697 178.547C391.942 180.342 390.25 181.931 388.735 183.286H371.748L371.679 183.252L369.232 182.115C369.232 182.115 369.929 181.256 371.094 179.634C371.333 179.305 371.588 178.943 371.865 178.547C372.205 178.062 372.572 177.527 372.966 176.947C373.785 175.732 374.715 174.305 375.715 172.688C377.651 169.561 379.858 165.714 382.087 161.26C382.342 160.741 382.603 160.217 382.863 159.688C382.868 159.671 382.879 159.654 382.885 159.638C383.326 158.734 383.762 157.803 384.198 156.856C387.894 148.795 388.953 142.105 389.256 139.936C389.682 136.87 390.272 132.583 390.112 127.867C390.006 124.756 389.575 121.467 388.549 118.2V118.195C388.336 117.509 388.096 116.823 387.825 116.143C387.341 114.922 386.767 113.718 386.086 112.531C383.081 107.302 380.64 107.084 378.699 101.387C378.125 99.6976 376.821 95.8846 377.22 91.8595V91.854C377.269 91.3578 377.348 90.8561 377.455 90.3542V90.3487C377.481 90.2094 377.518 90.0645 377.556 89.9252C377.859 88.6932 378.359 87.4721 379.119 86.3125C380.603 84.0605 382.629 82.7223 384.443 81.9253L384.448 81.9196C386.544 81.0055 388.352 80.8104 388.703 80.7769C396.473 80.0523 402.499 86.898 405.791 90.6386C407.062 92.0824 408.227 93.2923 409.29 94.2788C417.571 102.028 419.842 97.0774 420.432 94.5186C420.522 94.1229 420.571 93.7829 420.597 93.5597Z" fill="#6C63FF"/>
<path d="M420.624 93.27C420.624 93.2978 420.619 93.3925 420.598 93.5488C420.608 93.4649 420.614 93.3814 420.619 93.3032C420.619 93.2866 420.619 93.2755 420.624 93.27Z" fill="#6C63FF"/>
<path d="M378.384 210.903H93.2941C90.6453 210.903 88.4863 213.161 88.4863 215.937C88.4863 218.719 90.6453 220.977 93.2941 220.977H378.384C381.032 220.977 383.187 218.719 383.187 215.937C383.187 213.161 381.032 210.903 378.384 210.903Z" fill="#089708"/>
<path d="M315.118 236.926H156.556C153.908 236.926 151.754 239.184 151.754 241.96C151.754 244.736 153.908 247 156.556 247H315.118C317.766 247 319.925 244.736 319.925 241.96C319.925 239.184 317.766 236.926 315.118 236.926Z" fill="#089708"/>
<path d="M125.018 45.3089L142.985 37.3828L150.691 53.9429L131.81 62.021L125.018 45.3089Z" fill="#FFB6B6"/>
<path opacity="0.1" d="M125.018 45.3089L142.985 37.3828L150.691 53.9429L131.81 62.021L125.018 45.3089Z" fill="black"/>
<path d="M127.571 38.9984L145.297 60.4054C145.297 60.4054 132.966 101.2 120.636 104.835C108.305 108.47 85.5708 126.242 85.5708 126.242L57.0566 106.854L70.9284 85.4475C70.9284 85.4475 104.452 37.3828 113.314 37.3828C122.177 37.3828 127.571 38.9984 127.571 38.9984Z" fill="#6C63FF"/>
<path d="M103.624 178.548H62.3634L59.7547 174.892L49.1043 159.968L46.6536 156.535C46.6536 156.535 37.4058 138.763 39.3324 122.607C41.2591 106.451 61.2961 102.815 61.2961 102.815H62.1207L86.6506 125.41L85.1863 146.437L92.9545 159.968L103.624 178.548Z" fill="#2F2E41"/>
<path d="M70.8128 178.548H59.7539V161.382L70.8128 178.548Z" fill="#2F2E41"/>
<path d="M309.339 152.488L307.963 159.968L304.549 178.548H235.965C236.5 174.383 237.233 168.39 238.015 161.919C238.092 161.273 238.173 160.622 238.25 159.968C240.211 143.703 242.357 125.297 242.357 125.297L251.374 126.444L268.868 128.665L275.996 129.57L295.085 131.998C304.603 133.205 311.15 142.616 309.339 152.488Z" fill="black"/>
<path d="M406.399 178.547H369.199C369.766 177.849 370.085 177.445 370.085 177.445L381.237 175.514L404.214 171.54C404.214 171.54 405.262 174.379 406.399 178.547Z" fill="#2F2E41"/>
<path d="M248.609 53.3877L264.787 77.3692L236.568 78.2526L233.539 55.7156L248.609 53.3877Z" fill="#A0616A"/>
<path opacity="0.1" d="M248.609 53.3877L264.787 77.3692L236.568 78.2526L233.539 55.7156L248.609 53.3877Z" fill="black"/>
<path d="M168.83 103.075C166.754 96.7986 161.982 92.8335 158.171 94.2189C154.36 95.6043 152.955 101.815 155.032 108.093C155.829 110.613 157.19 112.897 159.002 114.752L168.117 141.23L179.88 136.482L169.645 110.883C169.972 108.25 169.692 105.572 168.83 103.075Z" fill="#A0616A"/>
<path d="M278.334 90.8556L278.312 115.296L276.143 124.323L271.68 142.891L268.432 159.968L266.012 172.691L265.149 177.235C264.498 177.691 263.851 178.127 263.203 178.547H206.841C203.639 176.532 201.848 174.965 201.848 174.965C201.848 174.965 202.734 174.092 203.747 172.691C205.458 170.324 207.527 166.446 206.26 162.743C205.994 161.967 205.924 161.022 206.005 159.968C206.522 153.013 213.481 141.251 213.481 141.251L212.04 123.794L211.408 116.144L215.863 78.8432L230.386 69.9937L232.893 69.7394L257.643 68.3379L267.872 68.9558L268.339 69.0891L278.334 90.8556Z" fill="#CCCCCC"/>
<path d="M279.434 178.548H267.104L266.56 172.691L266.549 172.574L270.04 172.324L279.122 171.673L279.28 175.179L279.403 177.869L279.434 178.548Z" fill="#FFB6B6"/>
<path d="M282.469 96.7649L287.648 128.621L283.421 159.968L282.763 164.847L281.599 173.462L281.24 176.112L281.252 176.399L281.341 178.548H266.698L266.159 172.691L266.113 172.166L265.01 160.17L264.991 159.968L262.652 134.53L267.238 116.144L267.577 114.791V114.787L269.572 83.3068L268.027 69.0005L268.011 68.8672C268.042 68.8874 268.069 68.9076 268.1 68.9278C268.181 68.9803 268.262 69.0328 268.339 69.0894C277.34 75.0753 282.704 85.5768 282.469 96.7649Z" fill="#CCCCCC"/>
<path d="M221.109 84.9475L215.478 78.8428C215.478 78.8428 203.424 84.5388 202.824 87.699C202.223 90.8591 180.94 137.273 180.94 137.273L171.681 111.351L159.629 119.786C159.629 119.786 169.3 160.031 178.344 161.92C187.388 163.81 217.701 114.286 217.701 114.286L221.109 84.9475Z" fill="#CCCCCC"/>
<path d="M449.741 159.688H11.2537C5.04724 159.688 0 164.984 0 171.49C0 177.995 5.04724 183.286 11.2537 183.286H449.741C455.948 183.286 461 177.996 461 171.49C461 164.984 455.948 159.688 449.741 159.688Z" fill="#575A89"/>
<path d="M275.768 123.726L274.915 165.427C274.832 169.463 271.687 172.691 267.835 172.691H194.653C190.892 172.691 187.787 169.609 187.582 165.673L185.407 123.972C185.185 119.72 188.415 116.144 192.478 116.144H268.688C272.658 116.144 275.853 119.565 275.768 123.726Z" fill="#3F3D56"/>
<path d="M157.628 55.3748C167.298 55.3748 175.137 47.1578 175.137 37.0216C175.137 26.8854 167.298 18.6685 157.628 18.6685C147.958 18.6685 140.119 26.8854 140.119 37.0216C140.119 47.1578 147.958 55.3748 157.628 55.3748Z" fill="#FFB6B6"/>
<path d="M128.343 85.0437L130.27 106.855L143.371 162.19L132.053 166.348L112.93 106.047L110.289 81.8125L128.343 85.0437Z" fill="#FFB6B6"/>
<path d="M123.131 123.726L122.278 165.427C122.196 169.463 119.05 172.691 115.198 172.691H42.0164C38.2556 172.691 35.1507 169.609 34.9454 165.673L32.7705 123.972C32.5488 119.72 35.7786 116.144 39.8416 116.144H116.051C120.021 116.144 123.216 119.565 123.131 123.726Z" fill="#3F3D56"/>
<path d="M145.457 172.973C153.093 172.973 159.284 170.103 159.284 166.562C159.284 163.021 153.093 160.151 145.457 160.151C137.82 160.151 131.629 163.021 131.629 166.562C131.629 170.103 137.82 172.973 145.457 172.973Z" fill="#FFB6B6"/>
<path d="M101.178 88.378L109.077 44.249C109.077 44.249 131.041 41.0178 131.811 48.692C132.582 56.3661 131.261 93.871 131.261 93.871L101.178 88.378Z" fill="#6C63FF"/>
<path d="M150.56 39.9073C150.56 39.9073 161.391 35.8554 165.96 33.6752C170.529 31.4951 179.605 46.7015 179.807 38.6705C180.009 30.6395 176.873 27.2716 176.873 27.2716C176.873 27.2716 176.09 9.70271 159.204 11.8992C159.204 11.8992 162.918 3.10931 150.726 1.75011C138.534 0.390909 119.566 31.2523 121.265 35.8644C122.963 40.4765 125 44.2895 120.18 49.2208C115.361 54.1521 106.336 81.9833 113.203 89.4724C120.069 96.9616 120.519 100.211 115.815 104.871C111.111 109.53 99.9906 119.661 112.014 121.419C124.037 123.178 110.914 121.865 119.877 113.6C128.841 105.336 141.921 105.673 137.037 92.4134C132.153 79.1537 140.638 60.1526 139.576 57.2701C138.514 54.3875 141.955 36.0832 141.955 36.0832C141.955 36.0832 149.962 34.8501 150.56 39.9073Z" fill="#2F2E41"/>
<path d="M239.96 62.0678C250.487 62.0678 259.02 53.123 259.02 42.0891C259.02 31.0551 250.487 22.1104 239.96 22.1104C229.434 22.1104 220.9 31.0551 220.9 42.0891C220.9 53.123 229.434 62.0678 239.96 62.0678Z" fill="#A0616A"/>
<path d="M241.481 15.2288C240.929 15.5663 240.191 15.0557 240.014 14.4125C239.837 13.7693 240.043 13.0864 240.247 12.4522L241.276 9.25939C242.005 6.99502 242.779 4.65152 244.359 2.92803C246.743 0.326711 250.532 -0.335053 253.943 0.144372C258.323 0.760049 262.644 3.2462 264.681 7.35738C266.718 11.4686 265.851 17.2051 262.171 19.7701C267.415 26.0715 269.244 33.0941 268.955 41.4512C268.666 49.8083 259.978 57.4996 254.312 63.3869C253.047 62.5829 251.897 58.815 252.592 57.4462C253.288 56.0775 252.291 54.4917 253.153 53.2309C254.015 51.9701 254.736 53.9777 253.864 52.724C253.315 51.933 255.46 50.1131 254.643 49.6396C250.691 47.3495 249.376 42.1855 246.894 38.231C243.9 33.4612 238.775 30.231 233.352 29.6951C230.365 29.3999 227.209 29.9346 224.761 31.7526C222.312 33.5705 220.727 36.8192 221.294 39.9077C219.824 38.3426 219.092 36.0488 219.368 33.8712C219.644 31.6936 220.922 29.6799 222.732 28.5717C221.631 24.7578 222.574 20.3706 225.128 17.4193C227.682 14.4679 238.041 14.9706 241.769 15.7473L241.481 15.2288Z" fill="#2F2E41"/>
<path d="M242.061 29.811C246.999 30.3698 250.564 34.8534 253.575 38.9941C255.31 41.3807 257.128 44.0162 257.084 47.0166C257.04 50.0501 255.105 52.6519 254.18 55.5267C252.669 60.2257 254.142 65.8163 257.74 69.036C254.185 69.7432 250.342 66.949 249.728 63.2108C249.013 58.8591 252.16 54.6591 251.788 50.2607C251.459 46.3857 248.546 43.4035 246.069 40.5061C243.593 37.6088 241.267 33.7641 242.406 30.0618L242.061 29.811Z" fill="#2F2E41"/>
<path d="M315.883 162.213C310.991 165.129 308.462 170.139 310.233 173.401C312.004 176.664 317.404 176.944 322.297 174.026C324.266 172.888 325.947 171.273 327.199 169.315L347.775 156.685L341.914 146.69L322.253 160.203C320.007 160.33 317.822 161.019 315.883 162.213Z" fill="#FFB6B6"/>
<path d="M385.546 69.596C384.931 69.3406 379.536 67.199 374.611 70.0265C368.953 73.2746 368.079 80.6891 367.773 83.2897C367.065 89.297 369.151 90.6435 369.591 96.7252C370.415 108.103 372.587 95.1231 369.118 100.317C367.917 102.115 355.653 129.973 348.89 135.43C335.736 146.043 327.383 153.517 327.383 153.517L336.919 164.375C336.919 164.375 351.987 160.167 365.306 151.102C378.968 141.803 385.799 137.154 391.084 128.058C391.539 127.275 402.429 107.891 396.58 86.457C395.246 81.568 392.802 72.6101 385.546 69.596Z" fill="#6C63FF"/>
<path d="M434.787 123.726L433.935 165.427C433.852 169.463 430.706 172.691 426.855 172.691H353.673C349.912 172.691 346.807 169.609 346.602 165.673L344.427 123.972C344.205 119.72 347.435 116.144 351.498 116.144H427.707C431.677 116.144 434.872 119.565 434.787 123.726Z" fill="#3F3D56"/>
</g>
<defs>
<clipPath id="clip0_117_7">
<rect width="461" height="247" fill="white"/>
</clipPath>
</defs>
</svg>
