<svg width="215" height="186" viewBox="0 0 215 186" fill="none" xmlns="http://www.w3.org/2000/svg">
<rect width="215" height="186" fill="white"/>
<path d="M203.749 173.32C203.749 180.323 158.139 186 101.874 186C45.6102 186 0 180.323 0 173.32C0 168.363 22.8626 164.068 56.1821 161.985C69.922 161.123 85.4464 160.641 101.874 160.641C108.628 160.641 115.227 160.722 121.609 160.878C168.428 162.023 203.749 167.158 203.749 173.32Z" fill="#4D563D"/>
<path opacity="0.1" d="M88.7297 175.911C110.328 175.911 127.836 174.14 127.836 171.957C127.836 169.773 110.328 168.003 88.7297 168.003C67.1317 168.003 49.623 169.773 49.623 171.957C49.623 174.14 67.1317 175.911 88.7297 175.911Z" fill="black"/>
<path d="M88.5643 174.82C108.983 174.82 125.535 160.17 125.535 142.098C125.535 124.027 108.983 109.376 88.5643 109.376C68.146 109.376 51.5938 124.027 51.5938 142.098C51.5938 160.17 68.146 174.82 88.5643 174.82Z" fill="#050A21"/>
<path d="M100.23 161.458H77.2266V178.91H100.23V161.458Z" fill="#34D02A"/>
<path d="M130.301 165.686L128.986 171.685L137.531 172.775L143.117 170.048L142.789 165.686H130.301Z" fill="#575A89"/>
<path d="M87.2513 53.0675C87.2513 53.0675 86.594 59.3392 84.9509 59.6118C83.3077 59.8845 88.5658 70.7918 88.5658 70.7918H96.4528L102.697 69.4284L99.7391 63.4294C99.7391 63.4294 95.7956 59.0665 98.7532 55.5216C101.711 51.9767 87.2513 53.0675 87.2513 53.0675Z" fill="#A0616A"/>
<path opacity="0.1" d="M87.2513 53.0675C87.2513 53.0675 86.594 59.3392 84.9509 59.6118C83.3077 59.8845 88.5658 70.7918 88.5658 70.7918H96.4528L102.697 69.4284L99.7391 63.4294C99.7391 63.4294 95.7956 59.0665 98.7532 55.5216C101.711 51.9767 87.2513 53.0675 87.2513 53.0675Z" fill="black"/>
<path d="M70.8199 101.059C70.8199 101.059 62.2756 114.694 69.1767 117.42C76.0779 120.147 77.721 119.875 77.721 120.693C77.721 121.511 76.4065 121.238 77.0638 122.601C77.721 123.965 75.7493 129.418 77.721 132.691C79.6928 135.963 79.0355 138.417 79.0355 138.417C79.0355 138.417 79.0355 138.69 79.6928 139.78C80.3501 140.871 80.6787 141.689 80.3501 142.234C80.0214 142.78 78.0497 146.325 80.0214 147.143C81.9932 147.961 92.1806 148.506 93.1665 147.143C94.1524 145.779 92.1806 144.961 93.1665 144.143C94.1524 143.325 94.8097 143.052 94.1524 142.507C93.4951 141.962 92.8379 135.145 92.8379 135.145C92.8379 135.145 94.481 127.237 93.8238 126.146C93.1665 125.055 92.1806 123.965 92.8379 123.147C93.4951 122.329 94.1524 122.601 94.481 121.511C94.8097 120.42 95.4669 117.966 95.4669 117.966L99.0818 117.693L107.626 119.056C107.626 119.056 117.156 127.782 127.672 130.509C127.672 130.509 130.63 132.963 131.616 132.963C132.602 132.963 132.602 132.963 132.273 133.509C131.945 134.054 130.959 134.054 131.616 134.599C132.273 135.145 133.259 134.327 132.602 135.145C131.945 135.963 131.287 135.963 131.945 136.508C132.602 137.053 131.616 140.053 131.616 140.326C131.616 140.598 128.658 166.23 129.644 166.776C130.63 167.321 144.432 168.957 145.418 166.776C146.404 164.594 144.761 161.868 144.761 161.868C144.761 161.868 149.69 129.146 148.376 126.964C147.061 124.783 142.461 114.966 117.814 108.695C117.814 108.695 110.912 107.604 110.912 106.786C110.912 105.968 110.255 100.787 108.941 100.514C107.626 100.241 100.068 99.9688 100.068 99.9688L90.5375 102.423L77.3924 100.514L70.8199 101.059Z" fill="#3F3D56"/>
<path d="M82.3206 146.87L80.6775 151.779C80.6775 151.779 79.363 159.686 81.0061 161.595C82.2968 163.094 84.6012 164.93 88.8749 165.252C90.0727 165.344 91.272 165.093 92.2747 164.542C93.2773 163.99 94.0231 163.172 94.3888 162.221C94.4379 162.107 94.4685 161.988 94.4799 161.868C94.4799 161.322 93.494 154.778 93.494 154.778L91.8508 147.961L91.5222 146.052L82.3206 146.87Z" fill="black"/>
<path d="M130.302 170.321C130.302 170.321 128.659 168.958 128.33 170.321C128.001 171.684 126.687 177.411 128.987 177.683C131.288 177.956 153.306 180.683 155.606 179.592C157.906 178.501 162.179 176.865 159.549 176.047C156.92 175.229 149.362 172.775 149.362 172.775C149.362 172.775 145.09 168.14 144.433 167.867C143.775 167.594 140.16 168.14 138.517 169.23C136.874 170.321 130.302 170.321 130.302 170.321Z" fill="black"/>
<path d="M95.1367 58.794C100.763 58.794 105.324 55.0094 105.324 50.3408C105.324 45.6723 100.763 41.8877 95.1367 41.8877C89.5103 41.8877 84.9492 45.6723 84.9492 50.3408C84.9492 55.0094 89.5103 58.794 95.1367 58.794Z" fill="#753C44"/>
<path d="M94.1522 69.4283L90.2087 65.8834L85.8375 58.7937C85.8375 58.7937 82.6503 57.9756 81.993 59.339C81.3358 60.7025 69.5052 65.0654 69.5052 65.0654C69.5052 65.0654 72.4628 87.9706 71.1483 90.1521C69.8338 92.3335 67.5334 101.059 69.5052 101.877C71.477 102.695 80.6785 101.877 83.6362 102.968C86.5938 104.059 95.1381 104.059 97.4385 102.695C99.7389 101.332 100.396 100.241 102.697 101.059C104.655 101.756 109.233 77.9466 110.551 70.8514C110.662 70.2555 110.57 69.6457 110.285 69.091C110 68.5363 109.534 68.0589 108.938 67.7129C105.99 65.9967 100.679 63.0392 99.7389 63.4293C98.4244 63.9746 94.1522 69.4283 94.1522 69.4283Z" fill="white"/>
<path d="M108.284 68.3379C109.055 68.498 109.749 68.8502 110.273 69.3471C110.796 69.8441 111.124 70.4621 111.212 71.1181L113.87 90.9705C113.87 90.9705 107.298 102.696 104.011 94.788C100.725 86.8803 108.284 68.3379 108.284 68.3379Z" fill="#575A89"/>
<path d="M107.625 92.8793L114.855 91.2432C114.855 91.2432 116.169 98.8783 117.484 98.8783C118.798 98.8783 112.883 103.241 109.925 102.696C106.968 102.15 102.695 100.242 102.367 98.8783C102.038 97.5148 105.324 91.7885 105.324 91.7885L107.625 92.8793Z" fill="#575A89"/>
<path d="M87.4469 53.9872C88.1397 52.7198 88.0194 51.2414 88.5921 49.9334C88.8987 49.233 89.3964 48.6009 90.0462 48.0865C90.696 47.5721 91.4803 47.1894 92.3378 46.9681C93.1954 46.7469 94.103 46.6931 94.9898 46.8111C95.8765 46.929 96.7184 47.2155 97.4496 47.6481C98.1863 48.084 98.9249 48.6964 99.8242 48.6132C100.793 48.5236 101.656 47.6272 102.547 47.9557C103.533 48.3198 103.267 49.7872 104.267 50.1261C104.793 50.3045 105.415 50.0299 105.718 49.631C105.984 49.2119 106.128 48.7475 106.141 48.2741C106.279 47.1111 106.403 45.8802 105.795 44.8261C105.54 44.4688 105.317 44.096 105.129 43.7108C105.023 43.3512 104.98 42.9806 105.002 42.6107C104.997 41.2437 104.876 39.8179 104.047 38.6366C103.127 37.3258 101.427 36.4876 99.6525 36.1219C97.8783 35.7561 96.0195 35.8122 94.1979 35.9402C91.1866 36.1517 88.0462 36.6051 85.6738 38.1584C85.3513 38.3539 85.0738 38.5958 84.8544 38.8727C84.6462 39.2017 84.499 39.5548 84.4179 39.9202C83.905 41.6534 83.1359 43.3274 82.1282 44.9041C81.6435 45.5725 81.2473 46.2824 80.9466 47.0216C80.695 47.7727 80.712 48.6286 81.2387 49.2742C81.6675 49.7997 82.3529 50.0798 82.8915 50.5095C83.4251 50.9353 83.6748 51.7541 84.266 52.0765C84.782 52.358 85.4002 52.1593 85.9265 52.4576C86.6023 52.8406 86.6511 53.6804 87.4469 53.9872Z" fill="black"/>
<path d="M95.7949 73.5189L96.7808 71.8828C96.7808 71.8828 111.24 75.4277 114.198 78.6999C114.198 78.6999 121.428 74.8823 125.371 75.4277L129.315 75.973L117.156 84.9715L101.71 83.8808L95.7949 73.5189Z" fill="#F2F2F2"/>
<path d="M102.474 72L89 87.5429L108.389 95.4506C108.389 95.4506 110.202 96.2687 111.596 95.4506L124.492 90.5424L136.651 76.0902L124.492 81.2712C124.492 81.2712 123.177 79.0897 120.548 80.1805L102.474 72Z" fill="#34D02A"/>
<path d="M115.84 99.4235L118.469 93.6972C118.469 93.6972 124.385 87.4255 121.098 84.426C117.812 81.4265 114.197 93.1518 114.197 93.1518L115.84 99.4235Z" fill="#A0616A"/>
<path d="M85.5078 98.5096L91.2444 94.6506C91.2444 94.6506 100.153 91.6879 99.1244 87.7251C98.0953 83.7624 87.8786 92.4003 87.8786 92.4003L85.5078 98.5096Z" fill="#A0616A"/>
<path opacity="0.1" d="M71.3128 70.9284H70.9842C70.9842 70.9284 65.8905 65.8838 64.9046 72.7009C63.9187 79.5179 60.6324 102.15 69.1768 102.969C77.7211 103.787 83.8007 99.56 83.8007 99.56C83.8007 99.56 90.0446 91.6522 87.7442 91.6522C86.6312 91.6522 83.604 91.2374 80.843 91.3796C77.8976 91.5312 75.251 92.2196 75.4207 91.5159C75.7493 90.1525 80.5144 72.8372 71.3128 70.9284Z" fill="black"/>
<path d="M70.8185 65.6108L69.504 65.0654C69.504 65.0654 64.2459 65.8835 63.2601 72.7005C62.2742 79.5176 58.9879 102.15 67.5322 102.968C76.0765 103.786 87.5785 101.877 87.5785 101.877C87.5785 101.877 89.8789 91.5156 87.5785 91.5156C85.2781 91.5156 73.4475 92.879 73.7761 91.5156C74.1048 90.1522 80.0201 67.5196 70.8185 65.6108Z" fill="#753C44"/>
<path d="M111.076 96.2878L114.7 91.6792L116.991 99.2873L111.076 101.469V96.2878Z" fill="#575A89"/>
<path d="M119.873 183.725C124.773 183.725 128.746 180.429 128.746 176.362C128.746 172.296 124.773 169 119.873 169C114.973 169 111 172.296 111 176.362C111 180.429 114.973 183.725 119.873 183.725Z" fill="#34D02A"/>
<path d="M58.5322 118H26.1172V165H58.5322V118Z" fill="#34D02A"/>
<path d="M170.647 156L175.97 163.651L181.293 171.301H170.647H160L165.323 163.651L170.647 156Z" fill="#34D02A"/>
</svg>
